<svg width="25" height="19" viewBox="0 0 25 19" fill="none" xmlns="http://www.w3.org/2000/svg">
<path d="M21.2594 6.37918V3.0629H19.0486V6.37918H15.7323V8.59002H19.0486V11.9063H21.2594V8.59002H24.5757V6.37918H21.2594ZM9.09975 9.69545C11.5427 9.69545 13.5214 7.71674 13.5214 5.27375C13.5214 2.83076 11.5427 0.852051 9.09975 0.852051C6.65676 0.852051 4.67805 2.83076 4.67805 5.27375C4.67805 7.71674 6.65676 9.69545 9.09975 9.69545ZM9.09975 3.0629C10.3157 3.0629 11.3106 4.05778 11.3106 5.27375C11.3106 6.48972 10.3157 7.4846 9.09975 7.4846C7.88378 7.4846 6.8889 6.48972 6.8889 5.27375C6.8889 4.05778 7.88378 3.0629 9.09975 3.0629ZM16.1634 12.5253C14.3063 11.5747 11.8965 10.8009 9.09975 10.8009C6.30302 10.8009 3.89319 11.5747 2.03608 12.5253C0.930657 13.0891 0.256348 14.2277 0.256348 15.4658V18.5388H17.9431V15.4658C17.9431 14.2277 17.2688 13.0891 16.1634 12.5253ZM15.7323 16.328H2.4672V15.4658C2.4672 15.0457 2.68828 14.6699 3.04202 14.493C4.35747 13.8187 6.47989 13.0117 9.09975 13.0117C11.7196 13.0117 13.842 13.8187 15.1575 14.493C15.5112 14.6699 15.7323 15.0457 15.7323 15.4658V16.328Z" fill="white"/>
</svg>
