<svg width="50" height="50" viewBox="0 0 50 50" fill="none" xmlns="http://www.w3.org/2000/svg">
<circle cx="23.2315" cy="22.9913" r="22.3611" fill="#EBD408" stroke="#DAC403" stroke-width="0.803392"/>
<circle cx="23.2315" cy="22.9933" r="17.139" fill="#FFE34F" stroke="#FFE500" stroke-width="0.535595"/>
<path d="M31.3365 24.9275C31.1809 27.0785 30.3846 28.7718 28.9475 30.0075C27.5196 31.2432 25.634 31.861 23.2908 31.861C20.7279 31.861 18.7096 31.0006 17.2359 29.2798C15.7714 27.5499 15.0392 25.1792 15.0392 22.1678V20.9458C15.0392 19.0236 15.3778 17.3303 16.0552 15.8658C16.7325 14.4012 17.6982 13.28 18.9522 12.5019C20.2153 11.7148 21.6798 11.3212 23.3457 11.3212C25.6523 11.3212 27.5104 11.939 28.92 13.1747C30.3296 14.4104 31.1443 16.1449 31.364 18.3783H27.245C27.1443 17.0877 26.7828 16.1541 26.1603 15.5774C25.5471 14.9916 24.6089 14.6987 23.3457 14.6987C21.9727 14.6987 20.943 15.193 20.2565 16.1815C19.5792 17.1609 19.2313 18.6849 19.213 20.7536V22.2639C19.213 24.424 19.538 26.003 20.1879 27.0007C20.8469 27.9984 21.8812 28.4972 23.2908 28.4972C24.5631 28.4972 25.5105 28.2089 26.1329 27.6322C26.7645 27.0464 27.126 26.1448 27.2175 24.9275H31.3365Z" fill="#CDB904"/>
</svg>
