<svg width="115" height="44" viewBox="0 0 115 44" fill="none" xmlns="http://www.w3.org/2000/svg">
<path d="M0 5.43434C0 2.43303 2.43304 0 5.43435 0H109.495C112.496 0 114.929 2.43304 114.929 5.43435V38.303C114.929 41.3043 112.496 43.7374 109.495 43.7374H5.43435C2.43305 43.7374 0 41.3043 0 38.303V5.43434Z" fill="#232E6A"/>
<path d="M45.351 17.6033H41.2089V28.8687H38.4227V17.6033H34.3363V15.3465H45.351V17.6033ZM51.9913 18.8199H54.6753V28.8687H51.9913V22.6648L48.6294 28.8687H45.9361V18.8199H48.6294V25.0145L51.9913 18.8199ZM62.7831 18.8199H65.4671V28.8687H62.7831V22.6648L59.4211 28.8687H56.7278V18.8199H59.4211V25.0145L62.7831 18.8199ZM64.3619 14.7428C64.3619 15.5663 64.0647 16.2319 63.4703 16.7396C62.8821 17.2473 62.1082 17.5011 61.1485 17.5011C60.1888 17.5011 59.4118 17.2504 58.8174 16.7488C58.2292 16.2473 57.9351 15.5787 57.9351 14.7428H59.839C59.839 15.1329 59.9536 15.4362 60.1826 15.6529C60.4179 15.8635 60.7399 15.9687 61.1485 15.9687C61.551 15.9687 61.8667 15.8635 62.0958 15.6529C62.3249 15.4362 62.4394 15.1329 62.4394 14.7428H64.3619ZM73.6398 25.7017L76.2681 18.8199H79.6301V28.8687H76.9461V22.7019L74.5407 28.8687H72.739L70.38 22.8041V28.8687H67.696V18.8199H71.0301L73.6398 25.7017Z" fill="white"/>
</svg>
