<svg width="116" height="44" viewBox="0 0 116 44" fill="none" xmlns="http://www.w3.org/2000/svg">
<path d="M43.8881 21.4389L46.7021 15.3465H49.7483L45.309 23.965V28.8687H42.4764V23.965L38.0371 15.3465H41.0926L43.8881 21.4389ZM57.2802 20.9931H53.1196V28.8687H50.4356V18.8199H57.2802V20.9931ZM62.2675 25.7017L64.1342 18.8199H66.9389L63.5677 28.7386V32.7414H60.8837V28.655L57.531 18.8199H60.3357L62.2675 25.7017ZM74.1737 18.8199H76.8577V28.8687H74.1737V22.6648L70.8117 28.8687H68.1184V18.8199H70.8117V25.0145L74.1737 18.8199ZM75.7525 14.7428C75.7525 15.5663 75.4553 16.2319 74.8609 16.7396C74.2727 17.2473 73.4988 17.5011 72.5391 17.5011C71.5794 17.5011 70.8024 17.2504 70.208 16.7488C69.6198 16.2473 69.3257 15.5787 69.3257 14.7428H71.2296C71.2296 15.1329 71.3442 15.4362 71.5733 15.6529C71.8085 15.8635 72.1305 15.9687 72.5391 15.9687C72.9416 15.9687 73.2573 15.8635 73.4864 15.6529C73.7155 15.4362 73.83 15.1329 73.83 14.7428H75.7525Z" fill="#232E6A"/>
<path d="M5.71853 1.35859H110.318V-1.35859H5.71853V1.35859ZM114.394 5.43435V38.303H117.111V5.43435H114.394ZM110.318 42.3788H5.71853V45.096H110.318V42.3788ZM1.64277 38.303V5.43434H-1.07441V38.303H1.64277ZM5.71853 42.3788C3.46755 42.3788 1.64277 40.554 1.64277 38.303H-1.07441C-1.07441 42.0547 1.9669 45.096 5.71853 45.096V42.3788ZM114.394 38.303C114.394 40.554 112.569 42.3788 110.318 42.3788V45.096C114.07 45.096 117.111 42.0547 117.111 38.303H114.394ZM110.318 1.35859C112.569 1.35859 114.394 3.18337 114.394 5.43435H117.111C117.111 1.68271 114.07 -1.35859 110.318 -1.35859V1.35859ZM5.71853 -1.35859C1.96689 -1.35859 -1.07441 1.68271 -1.07441 5.43434H1.64277C1.64277 3.18336 3.46754 1.35859 5.71853 1.35859V-1.35859Z" fill="#232E6A"/>
</svg>
