<svg width="881" height="416" viewBox="0 0 881 416" fill="none" xmlns="http://www.w3.org/2000/svg">
<path d="M13.3774 146.104C10.6684 143.603 5.0627 138.352 4.3125 137.351C5.25025 135.893 7.18826 132.725 7.43833 131.725C7.75091 130.475 7.43833 129.849 8.68866 128.599C9.93899 127.349 11.1893 127.349 11.8145 126.724C12.4397 126.098 12.4397 122.973 13.3774 120.159C14.3152 117.346 14.6277 118.909 19.6291 116.721C22.7549 115.783 31.5072 115.471 32.7575 115.471H38.6966H45.5734C47.4489 115.471 51.1999 108.906 54.3258 106.406C55.5761 103.905 59.6397 99.5289 66.8291 98.2785C71.5178 97.3408 72.7681 93.9024 74.9562 91.0891C77.1443 88.2759 76.5074 88.8914 84.0211 84.8375C86.5 83.5 85.8966 83.8997 87.4595 82.3368C88.7099 81.0865 90.4812 79.7319 91.2105 79.211C96.3161 78.5858 106.777 77.2104 107.777 76.7103C109.028 76.0851 109.653 74.8348 111.528 72.9593C113.404 71.0838 112.779 70.4586 113.716 69.2083C114.654 67.958 116.217 68.5832 119.968 68.5832H121.844C122.365 68.3748 123.657 67.958 124.657 67.958C125.907 67.958 131.846 67.0202 133.097 67.0202H141.536C143.099 67.0202 146.225 68.2706 146.85 69.2083C147.35 69.9585 147.892 72.0216 148.101 72.9593H159.041H165.293H170.607C172.169 72.9593 177.796 73.2719 179.984 75.46C182.172 77.6481 181.86 77.0229 183.735 81.0865C185.611 85.15 185.298 84.2123 186.861 87.0255C188.424 89.8388 188.736 88.5885 190.299 91.0891C191.862 93.5898 191.237 92.3395 191.862 93.9024C192.487 95.4653 195.926 94.8401 197.801 95.7779C199.677 96.7156 204.053 97.3408 208.429 98.2785C212.805 99.2163 214.368 96.403 214.993 96.403H225.309C228.81 96.403 235.728 95.3611 238.75 94.8401C240.417 94.7359 245.189 95.0902 250.94 97.3408C258.13 100.154 254.066 99.2163 260.943 102.03C264.694 102.03 263.444 101.092 268.132 99.2163C271.883 97.7159 271.5 97 271.883 96.403C273.967 95.3611 278.573 93.0897 280.323 92.3395C282.511 91.4017 285.637 83.5871 285.637 81.0865C285.637 78.5858 285.95 76.7103 285.637 75.46C285.324 74.2097 285.012 69.8335 283.762 69.2083C282.511 68.5832 274.072 66.3951 274.072 63.2692C274.072 60.1434 273.759 60.1434 274.072 55.4546C274.384 50.7659 275.947 50.7659 275.009 47.6401C274.072 44.5143 275.634 37.6375 275.947 36.6997C276.26 35.762 276.26 35.1368 277.197 31.3858C278.135 27.6348 278.135 28.8851 278.135 27.9474C278.135 27.0096 282.511 22.946 283.762 22.3209C285.012 21.6958 285.95 20.1328 287.513 18.5699C289.076 17.007 289.701 15.4441 290.638 14.5063C291.576 13.5686 292.514 12.6308 292.826 12.0057C293.139 11.3805 293.764 9.19242 294.389 8.87983C295.015 8.56725 295.64 7.31688 296.265 5.44142C296.89 3.56596 297.828 4.50363 298.766 3.87847C299.703 3.2533 302.517 5.44138 305.017 7.31688C307.518 9.19238 307.83 8.56721 315.645 12.6308C323.46 16.6944 320.646 14.8189 322.522 17.3195C324.397 19.8202 333.15 17.3195 334.713 17.3195C336.276 17.3195 348.154 20.4454 349.091 21.0705C350.029 21.6957 350.654 21.3831 357.844 22.946C365.033 24.5089 360.97 24.5089 365.658 26.0718C370.347 27.6348 376.286 22.6334 379.412 24.5089C382.538 26.3844 381.913 28.2599 384.726 32.9487C387.539 37.6374 387.852 37.3248 388.477 40.1381C389.102 42.9513 390.665 45.452 391.29 48.5778C391.915 51.7036 392.853 52.0162 395.666 55.4546C398.479 58.8931 398.792 60.1434 400.98 64.207C403.168 68.2705 408.482 67.0202 410.045 68.5831C411.608 70.146 411.608 68.8957 413.171 69.8335C414.734 70.7712 416.922 71.0838 418.485 71.0838H432.238C433.489 71.0838 436.927 68.3747 438.49 67.0202C438.907 66.7076 440.178 65.7074 441.928 64.207C444.117 62.3315 446.93 61.0811 447.555 60.1434C448.18 59.2056 456.62 59.2056 458.808 58.8931C460.558 58.643 463.705 55.2463 465.06 53.5791H476.938H491.629C494.442 53.5791 505.695 54.2043 506.946 54.5169C508.196 54.8295 508.821 55.1421 511.634 56.705C513.885 57.9553 514.448 58.0595 514.448 57.9553C519.032 58.8931 528.326 60.8311 528.827 61.0811C529.327 61.3312 534.036 60.5602 536.328 60.1434H538.204C539.142 60.1434 544.143 64.207 546.331 67.0202C548.519 69.8335 547.894 70.4586 549.457 74.2096C551.02 77.9606 552.583 77.0229 554.146 78.8984C555.709 80.7738 560.085 81.7116 562.898 81.7116C564.774 81.7116 567.274 80.4613 570.087 80.4613H573.526C574.776 80.4613 577.589 80.4613 582.903 81.7116C587.154 82.7119 589.468 82.1284 590.093 81.7116L605.409 75.4599H615.412L621.976 69.2082L631.979 66.395L640.731 59.5182C641.669 59.1014 644.17 57.9553 646.67 56.705C649.171 55.4546 653.755 52.0162 655.735 50.4533C661.153 48.0568 671.989 42.9513 671.989 41.701C671.989 40.4507 672.823 34.9284 673.24 32.3235C678.45 27.5306 688.931 17.8197 689.182 17.3195C689.494 16.6944 693.245 12.3182 693.87 10.4427C694.37 8.94235 695.954 7.52529 696.684 7.0043C699.914 6.6917 706.936 6.25405 709.187 7.0043C712 7.9421 713.876 8.25463 715.126 9.19238C716.376 10.1301 720.44 11.3805 721.69 12.3182C722.69 13.0683 729.192 12.6307 732.318 12.3182C734.193 11.3804 738.195 9.44244 739.195 9.19238C740.195 8.94231 743.363 5.96232 744.821 4.50358C746.072 4.39939 748.947 4.25351 750.448 4.50358C752.323 4.81616 753.886 5.44133 755.137 6.06649C756.387 6.69166 757.95 10.1301 757.95 12.3182C757.95 14.0686 756.908 14.5062 756.387 14.5062C756.595 15.8608 757.2 19.3825 757.95 22.6334C758.888 26.697 757.637 24.1963 757.95 26.3844C758.262 28.5725 758.575 28.5725 758.888 34.8241C759.2 41.0758 758.262 37.0122 756.387 46.3897C754.511 55.7672 754.824 52.0162 753.886 54.2043C753.136 55.9547 753.574 62.4356 753.886 65.4572C754.72 66.1866 756.387 67.9579 756.387 69.2082C756.387 70.7711 757.012 70.7712 756.387 75.4599C755.762 80.1486 753.886 79.5235 752.948 81.0864C752.011 82.6494 753.261 82.9619 753.886 86.4003C754.511 89.8388 755.449 88.5884 756.387 90.7764C757.325 92.9645 758.888 92.6519 759.825 93.5897C760.763 94.5274 765.764 95.4652 766.389 95.4652C767.015 95.4652 769.828 92.6519 771.078 90.7764C772.329 88.9009 772.329 90.1513 776.08 88.5884C779.831 87.0255 777.33 87.9632 778.58 87.0255C779.831 86.0877 784.207 82.9619 784.832 82.9619H789.833C790.875 82.8577 793.459 82.9619 795.46 84.2122C797.96 85.7751 800.148 87.0255 800.774 87.0255C801.399 87.0255 801.711 87.338 802.962 87.0255C804.212 86.7129 803.899 86.4003 804.525 84.8374C805.15 83.2744 805.462 83.2745 805.775 81.0864C806.087 78.8984 807.025 77.648 808.276 77.648C809.526 77.648 810.464 73.5844 811.714 72.0215C812.964 70.4586 813.589 70.7712 814.215 70.146C814.84 69.5208 817.966 68.2705 819.529 67.6454C821.091 67.0202 821.404 66.395 822.029 66.0825C822.654 65.7699 829.219 67.0202 830.469 67.6454C831.719 68.2705 835.783 69.5209 836.721 70.7712C837.658 72.0215 837.971 71.0838 839.846 72.0215C841.722 72.9593 841.722 72.6467 842.347 73.5844C842.972 74.5222 846.723 75.7725 847.661 76.3977C848.599 77.0229 848.911 77.0229 850.474 77.648C852.037 78.2732 852.35 78.8983 855.476 81.0864C858.601 83.2745 859.852 83.2745 865.166 86.4003C866.729 87.6507 867.979 88.2758 869.229 91.7142C870.48 95.1526 872.042 95.1527 872.98 97.0282C873.918 98.9036 875.481 99.8414 876.419 101.717C877.356 103.592 876.419 103.592 876.419 104.53C876.419 105.468 872.668 106.718 872.042 107.343C871.417 107.969 868.292 107.656 865.166 108.281C862.04 108.906 860.477 108.594 859.852 108.281C859.352 108.031 852.35 109.01 848.911 109.531C847.348 109.844 843.723 110.844 841.722 112.345C840.472 113.908 834.22 118.284 831.407 122.035C828.594 125.786 829.844 123.598 829.219 124.223C828.719 124.723 821.508 126.307 817.966 127.036C818.07 127.87 818.216 129.974 817.966 131.725C817.653 133.913 817.653 137.976 817.341 138.602C817.028 139.227 813.589 140.165 811.714 140.79C809.839 141.415 810.151 140.79 808.276 141.727C806.4 142.665 801.711 145.791 800.774 147.354C799.836 148.917 797.96 152.98 797.648 153.918L795.46 160.482V165.171V169.547C795.46 171.735 794.834 171.423 793.584 175.174C792.334 178.925 792.334 178.612 791.084 181.113C789.833 183.614 785.457 184.864 784.832 185.176C784.207 185.489 776.705 190.49 773.579 192.678C770.453 194.867 769.203 193.616 764.514 196.742C759.825 199.868 762.638 197.367 757.637 200.806C752.636 204.244 754.824 202.681 753.886 205.494C752.948 208.308 751.698 209.871 751.073 212.684C750.448 215.497 749.51 214.872 747.635 218.623C745.759 222.374 745.759 220.498 744.509 222.686C743.258 224.875 739.195 229.563 737.944 231.439C736.694 233.314 736.382 231.439 733.568 232.064C730.755 232.689 731.38 233.002 727.004 234.565C723.503 235.815 722.836 235.086 722.94 234.565C719.815 234.773 713.313 235.19 712.313 235.19C711.062 235.19 709.499 233.002 708.874 232.064C708.249 231.126 706.061 231.439 704.185 231.439C702.31 231.439 701.997 231.126 699.497 231.439C696.996 231.751 697.309 231.751 692.307 233.002C690.119 233.939 690.432 233.314 687.931 235.19C685.431 237.065 686.681 236.44 686.681 238.316C686.681 240.191 685.118 241.129 682.93 244.255C680.742 247.38 682.617 245.818 681.68 247.068C680.742 248.318 680.742 264.573 681.68 266.761C682.617 268.949 683.555 268.324 684.18 269.261C684.805 270.199 685.118 270.512 686.681 272.387C688.244 274.263 688.869 273.325 691.057 275.513C693.245 277.701 692.307 276.451 695.121 278.951C696.058 280.202 697.621 279.889 698.872 281.765C700.122 283.64 700.122 284.89 698.872 289.579C697.934 292.705 696.371 291.455 695.121 293.018C693.87 294.581 685.43 300.52 685.118 301.457C684.805 302.395 681.367 305.833 679.491 308.959C677.616 312.085 676.053 312.085 674.803 313.648C673.802 314.898 670.01 322.296 668.238 325.839C667.613 326.36 666.113 328.152 665.113 331.153C663.862 334.904 663.237 332.716 661.049 335.529L660.639 336.055C658.706 338.539 657.611 339.945 657.611 340.53C657.611 341.155 648.233 348.345 647.295 348.345C646.358 348.345 636.355 357.097 633.854 357.097H631.979C631.041 357.097 628.853 357.097 623.227 360.223C617.6 363.349 617.6 361.473 616.35 361.786C615.099 362.098 596.97 366.162 596.344 366.162C595.719 366.162 595.094 367.1 593.844 367.1H578.527C574.526 367.1 573.5 370.5 572 371.5L571.025 372.414L566.649 376.79C563.315 379.186 556.334 384.229 555.083 385.23C553.521 386.48 551.645 386.167 549.457 386.792C547.269 387.418 546.331 388.981 544.143 390.543C541.955 392.106 538.204 394.92 537.579 395.232C536.954 395.545 523.2 407.423 520.074 409.298C516.948 411.174 519.136 410.549 518.824 411.174C518.511 411.799 513.51 412.112 512.26 412.112H506.633C504.132 412.112 505.07 411.799 502.882 411.174C500.694 410.549 501.632 409.298 501.007 407.423C500.382 405.547 500.382 405.547 498.819 404.61C497.256 403.672 497.568 404.61 494.13 406.173C492.254 406.798 488.503 407.423 478.501 409.298C470.499 410.799 474 407.423 471.311 407.423H465.685C463.184 407.423 459.746 405.86 458.183 405.547C456.62 405.235 456.932 405.235 455.057 403.672C453.181 402.109 450.681 403.047 450.056 402.734C449.43 402.422 442.241 401.171 440.366 400.234C438.865 399.483 430.155 399.921 425.987 400.234C425.257 399.921 423.361 399.171 421.611 398.671C419.423 398.045 419.423 397.733 415.984 396.483C412.546 395.232 410.358 393.669 405.981 392.732C401.605 391.794 398.792 390.543 395.979 389.918C393.166 389.293 393.166 388.355 390.977 387.73C388.789 387.105 385.976 387.418 381.287 387.73C376.599 388.043 369.409 388.043 368.472 388.355C367.534 388.668 351.592 394.92 350.967 394.92H340.652H322.834C320.334 394.92 312.207 393.982 311.269 394.294C310.519 394.545 296.994 394.815 290.326 394.92H279.073H272.196C270.946 394.92 269.07 394.92 264.694 396.483C261.193 397.733 254.483 395.962 251.566 394.92C250.836 393.253 249.127 389.668 248.127 388.668C247.127 387.668 246.668 386.792 246.564 386.48C242.813 381.374 234.874 370.726 233.123 368.975C230.935 366.787 231.248 366.162 229.06 363.661C226.871 361.161 228.434 361.161 228.122 358.347C227.809 355.534 226.871 354.909 224.058 350.845C221.245 346.782 220.62 346.782 219.057 343.343C217.494 339.905 218.119 338.03 217.494 335.216C216.869 332.403 216.556 333.653 216.244 333.028C215.931 332.403 214.993 332.403 214.368 332.403C213.743 332.403 212.805 332.09 210.617 332.716C208.867 333.216 206.345 333.549 205.303 333.653C205.199 333.549 204.866 333.278 204.366 333.028C203.74 332.716 203.428 332.09 202.49 331.465C201.74 330.965 199.468 330.007 198.426 329.59C188.632 323.755 168.919 312.023 168.419 311.773C167.793 311.46 166.543 310.835 164.98 310.522C163.417 310.21 161.854 308.647 160.291 308.022C158.728 307.396 155.915 305.833 154.352 305.208C152.789 304.583 153.102 304.583 150.601 303.958C148.101 303.333 145.913 302.708 144.662 302.395C143.412 302.082 141.224 300.52 139.973 300.207C138.723 299.894 130.283 299.582 129.033 299.582H116.217C109.34 299.582 114.342 298.019 110.903 299.582C107.465 301.145 107.465 299.582 98.0874 299.582C96.2119 300.207 93.3986 295.518 91.2105 293.643C89.0225 291.767 88.7099 291.142 88.7099 289.579C88.7099 288.329 84.9589 284.265 83.0834 282.39C82.6666 280.931 82.9584 275.701 87.4595 266.448C89.9602 265.198 91.2105 259.884 91.2105 257.071V255.508L88.7099 251.444L87.4595 247.693L91.2105 243.942V239.566L88.7099 230.814C87.4595 226.437 87.4595 229.251 87.4595 226.75V222.374L84.9589 218.623C82.875 215.289 78.1446 208.058 75.894 205.807C74.6436 204.557 74.0185 202.369 71.2052 197.055C68.9546 192.804 70.2675 194.45 71.2052 195.804L68.7046 187.677L64.3284 185.489L56.2013 177.362H50.5748H42.135C39.8844 177.362 37.2379 175.903 36.196 175.174L9.31383 149.542L13.3774 146.104Z" fill="#F4F4F4" stroke="#D1D1D1" stroke-width="6.87682"/>
<path d="M305.259 179.188H287.98V246.016H276.358V179.188H259.312V169.775H305.259V179.188Z" fill="#757783"/>
<path d="M328.49 226.181H316.868V169.775H328.49V226.181Z" fill="#757783"/>
<path d="M345.833 226.181V169.775H372.202C379.046 169.775 384.237 171.092 387.776 173.726C391.314 176.335 393.083 180.17 393.083 185.232C393.083 187.995 392.373 190.436 390.952 192.554C389.532 194.646 387.556 196.183 385.025 197.164C387.918 197.887 390.19 199.346 391.843 201.542C393.522 203.737 394.361 206.423 394.361 209.6C394.361 215.023 392.631 219.13 389.17 221.919C385.709 224.708 380.776 226.129 374.371 226.181H345.833ZM357.455 201.619V216.844H374.023C376.76 216.844 378.891 216.198 380.415 214.907C381.965 213.59 382.739 211.782 382.739 209.483C382.739 204.318 380.066 201.697 374.72 201.619H357.455ZM357.455 193.406H372.667C378.53 193.303 381.461 190.966 381.461 186.394C381.461 183.837 380.712 182.004 379.214 180.893C377.742 179.757 375.404 179.188 372.202 179.188H357.455V193.406Z" fill="#757783"/>
<path d="M436.124 226.176V169.77H409.599C416.443 169.77 421.635 171.087 425.173 173.721C428.711 176.33 430.48 180.165 430.48 185.227C430.48 187.99 429.77 190.431 428.35 192.549C426.929 194.641 424.953 196.178 422.422 197.159C425.315 197.882 427.588 199.341 429.241 201.537C430.919 203.732 431.759 206.418 431.759 209.595C431.759 215.018 430.028 219.125 426.568 221.914C423.107 224.703 418.174 226.124 411.769 226.176H436.124ZM401.464 201.614V216.839H411.42C414.158 216.839 416.288 216.193 417.812 214.902C419.362 213.585 420.137 211.777 420.137 209.478C420.137 204.313 417.464 201.692 412.117 201.614H401.464ZM401.464 193.401H410.064C415.927 193.298 418.858 190.961 418.858 186.389C418.858 183.832 418.109 181.999 416.611 180.888C415.139 179.752 412.802 179.183 409.599 179.183H401.464V193.401Z" fill="#757783"/>
<path d="M467.736 201.735H445.421V216.844H471.61V226.181H433.799V169.775H471.532V179.188H445.421V192.631H467.736V201.735Z" fill="#757783"/>
<path d="M500.148 169.775L514.637 210.684L529.049 169.775H544.313V246.016H288.019V237.202H532.652V210.762L533.814 184.147L518.589 226.181H510.608L495.422 184.186L496.584 210.762V226.181H484.962V169.775H500.148Z" fill="#757783"/>
</svg>
