<svg width="42" height="41" viewBox="0 0 42 41" fill="none" xmlns="http://www.w3.org/2000/svg">
<path fill-rule="evenodd" clip-rule="evenodd" d="M31.0568 13.6833C31.8534 12.9019 31.8658 11.6227 31.0845 10.826C30.3031 10.0293 29.0239 10.0169 28.2272 10.7983L21.0552 17.8324L13.9357 10.6497C13.1502 9.8572 11.8709 9.85155 11.0783 10.6371C10.2858 11.4227 10.2802 12.702 11.0657 13.4945L18.1702 20.6619L10.9172 27.7754C10.1206 28.5568 10.1081 29.836 10.8895 30.6327C11.6708 31.4294 12.9501 31.4418 13.7468 30.6604L21.015 23.532L28.1344 30.7145C28.92 31.5071 30.1993 31.5127 30.9918 30.7272C31.7843 29.9416 31.79 28.6623 31.0044 27.8698L23.9 20.7024L31.0568 13.6833Z" fill="#FF0000"/>
</svg>
