<svg width="23" height="26" viewBox="0 0 23 26" fill="none" xmlns="http://www.w3.org/2000/svg">
<path fill-rule="evenodd" clip-rule="evenodd" d="M21.3477 4.85115C22.0921 4.01629 22.1101 2.64711 21.3878 1.793C20.6656 0.938897 19.4767 0.923293 18.7323 1.75815L11.4279 9.95012L4.23991 1.53917C3.51356 0.689227 2.32456 0.680465 1.58422 1.5196C0.843881 2.35873 0.832542 3.72799 1.5589 4.57794L8.73288 12.9726L1.35693 21.2447C0.61252 22.0796 0.594536 23.4488 1.31676 24.3029C2.03898 25.157 3.22792 25.1726 3.97232 24.3377L11.3625 16.0496L18.5611 24.473C19.2875 25.323 20.4765 25.3317 21.2168 24.4926C21.9571 23.6535 21.9685 22.2842 21.2421 21.4343L14.0575 13.0272L21.3477 4.85115Z" fill="#212D5B"/>
<path d="M21.3878 1.793L21.7401 1.43982L21.3878 1.793ZM21.3477 4.85115L21.0048 4.48884L21.0048 4.48884L21.3477 4.85115ZM18.7323 1.75815L19.0751 2.12046L19.0751 2.12046L18.7323 1.75815ZM11.4279 9.95012L11.0773 10.3053L11.4198 10.706L11.7707 10.3124L11.4279 9.95012ZM4.23991 1.53917L4.59045 1.18397L4.59044 1.18397L4.23991 1.53917ZM1.58422 1.5196L1.92883 1.87991L1.92883 1.87991L1.58422 1.5196ZM1.5589 4.57794L1.90943 4.22274L1.90943 4.22274L1.5589 4.57794ZM8.73288 12.9726L9.07573 13.3349L9.39274 12.9793L9.08341 12.6174L8.73288 12.9726ZM1.35693 21.2447L1.01408 20.8824L1.01408 20.8824L1.35693 21.2447ZM1.31676 24.3029L0.964514 24.6561L0.964514 24.6561L1.31676 24.3029ZM3.97232 24.3377L4.31517 24.7L4.31517 24.7L3.97232 24.3377ZM11.3625 16.0496L11.713 15.6944L11.3706 15.2937L11.0197 15.6873L11.3625 16.0496ZM18.5611 24.473L18.2106 24.8282L18.2106 24.8282L18.5611 24.473ZM21.2168 24.4926L20.8722 24.1323L20.8722 24.1323L21.2168 24.4926ZM21.2421 21.4343L20.8916 21.7894L20.8916 21.7894L21.2421 21.4343ZM14.0575 13.0272L13.7146 12.6649L13.3976 13.0204L13.7069 13.3824L14.0575 13.0272ZM21.0356 2.14619C21.5861 2.79727 21.5723 3.85244 21.0048 4.48884L21.6905 5.21345C22.6119 4.18014 22.634 2.49696 21.7401 1.43982L21.0356 2.14619ZM19.0751 2.12046C19.628 1.50044 20.4992 1.51187 21.0356 2.14619L21.7401 1.43982C20.832 0.365921 19.3254 0.346148 18.3894 1.39585L19.0751 2.12046ZM11.7707 10.3124L19.0751 2.12046L18.3894 1.39585L11.085 9.58781L11.7707 10.3124ZM3.88938 1.89436L11.0773 10.3053L11.7784 9.59492L4.59045 1.18397L3.88938 1.89436ZM1.92883 1.87991C2.47865 1.25673 3.34994 1.26315 3.88938 1.89436L4.59044 1.18397C3.67717 0.115306 2.17048 0.104203 1.23961 1.15928L1.92883 1.87991ZM1.90943 4.22274C1.35573 3.57483 1.36447 2.51958 1.92883 1.87991L1.23961 1.15928C0.323292 2.19787 0.309352 3.88116 1.20836 4.93313L1.90943 4.22274ZM9.08341 12.6174L1.90943 4.22274L1.20836 4.93313L8.38235 13.3277L9.08341 12.6174ZM1.69977 21.607L9.07573 13.3349L8.39004 12.6102L1.01408 20.8824L1.69977 21.607ZM1.669 23.9497C1.11846 23.2986 1.13232 22.2434 1.69977 21.607L1.01408 20.8824C0.0927234 21.9157 0.0706143 23.5989 0.964514 24.6561L1.669 23.9497ZM3.62948 23.9754C3.07664 24.5954 2.20537 24.584 1.669 23.9497L0.964514 24.6561C1.87259 25.73 3.3792 25.7497 4.31517 24.7L3.62948 23.9754ZM11.0197 15.6873L3.62948 23.9754L4.31517 24.7L11.7053 16.4119L11.0197 15.6873ZM18.9116 24.1178L11.713 15.6944L11.012 16.4048L18.2106 24.8282L18.9116 24.1178ZM20.8722 24.1323C20.3224 24.7555 19.4511 24.749 18.9116 24.1178L18.2106 24.8282C19.1239 25.8969 20.6305 25.908 21.5614 24.8529L20.8722 24.1323ZM20.8916 21.7894C21.4453 22.4374 21.4366 23.4926 20.8722 24.1323L21.5614 24.8529C22.4777 23.8143 22.4917 22.131 21.5927 21.0791L20.8916 21.7894ZM13.7069 13.3824L20.8916 21.7894L21.5927 21.0791L14.408 12.672L13.7069 13.3824ZM21.0048 4.48884L13.7146 12.6649L14.4003 13.3895L21.6905 5.21345L21.0048 4.48884Z" fill="black"/>
</svg>
