<svg width="16" height="16" viewBox="0 0 16 16" fill="none" xmlns="http://www.w3.org/2000/svg">
<circle cx="7.88611" cy="7.88611" r="7.74694" fill="#EBD408" stroke="#DAC403" stroke-width="0.278333"/>
<circle cx="7.88602" cy="7.88602" r="5.93778" fill="#FFE34F" stroke="#FFE500" stroke-width="0.185556"/>
<path d="M10.6939 8.54848C10.64 9.29369 10.3641 9.88035 9.86626 10.3085C9.37156 10.7366 8.71831 10.9506 7.90651 10.9506C7.01859 10.9506 6.31936 10.6525 5.80881 10.0563C5.30144 9.45701 5.04775 8.63569 5.04775 7.59239V7.16905C5.04775 6.50311 5.16508 5.91646 5.39974 5.40908C5.6344 4.9017 5.96895 4.51324 6.4034 4.24369C6.84101 3.97098 7.34839 3.83462 7.92553 3.83462C8.72465 3.83462 9.36839 4.04867 9.85674 4.47677C10.3451 4.90487 10.6273 5.5058 10.7034 6.27955H9.27643C9.24155 5.83242 9.11629 5.50897 8.90065 5.30919C8.68819 5.10624 8.36315 5.00476 7.92553 5.00476C7.44987 5.00476 7.09312 5.176 6.85528 5.51848C6.62062 5.85779 6.50012 6.38578 6.49377 7.10245V7.62569C6.49377 8.37407 6.60635 8.92109 6.8315 9.26674C7.05982 9.61239 7.41815 9.78522 7.90651 9.78522C8.34729 9.78522 8.6755 9.68533 8.89114 9.48555C9.10994 9.2826 9.2352 8.97024 9.26691 8.54848H10.6939Z" fill="#CDB904"/>
</svg>
