<svg width="31" height="31" viewBox="0 0 31 31" fill="none" xmlns="http://www.w3.org/2000/svg">
<g clip-path="url(#clip0)">
<path d="M30.162 16.0662C30.162 15.0478 30.0794 14.0239 29.9033 13.022H15.772V18.7912H23.8643C23.5285 20.6519 22.4495 22.2978 20.8696 23.3438V27.0872H25.6975C28.5325 24.4778 30.162 20.6243 30.162 16.0662Z" fill="#4285F4"/>
<path d="M15.7724 30.7037C19.813 30.7037 23.2206 29.377 25.7033 27.0869L20.8755 23.3436C19.5323 24.2574 17.7982 24.7749 15.7779 24.7749C11.8693 24.7749 8.55535 22.138 7.36628 18.5928H2.38428V22.4518C4.92757 27.5108 10.1078 30.7037 15.7724 30.7037Z" fill="#34A853"/>
<path d="M7.36071 18.5927C6.73314 16.732 6.73314 14.7172 7.36071 12.8565V8.99756H2.38422C0.259298 13.2309 0.259298 18.2184 2.38422 22.4517L7.36071 18.5927Z" fill="#FBBC04"/>
<path d="M15.7724 6.66912C17.9083 6.63609 19.9727 7.43982 21.5196 8.91515L25.7969 4.63779C23.0885 2.09449 19.4937 0.696228 15.7724 0.740267C10.1078 0.740267 4.92757 3.93315 2.38428 8.99772L7.36077 12.8567C8.54434 9.306 11.8638 6.66912 15.7724 6.66912Z" fill="#EA4335"/>
</g>
<defs>
<clipPath id="clip0">
<rect width="29.9636" height="29.9636" fill="white" transform="translate(0.490723 0.739258)"/>
</clipPath>
</defs>
</svg>
