<svg width="25" height="26" viewBox="0 0 25 26" fill="none" xmlns="http://www.w3.org/2000/svg">
<circle cx="12.1989" cy="13.0124" r="11.9836" fill="#EBD408" stroke="#DAC403" stroke-width="0.430549"/>
<circle cx="12.1967" cy="13.0122" r="9.18504" fill="#FFE34F" stroke="#FFE500" stroke-width="0.287033"/>
<path d="M16.5425 14.115C16.4591 15.2677 16.0324 16.1752 15.2622 16.8374C14.497 17.4996 13.4865 17.8308 12.2307 17.8308C10.8572 17.8308 9.77561 17.3697 8.98585 16.4474C8.201 15.5203 7.80857 14.2499 7.80857 12.636V11.9811C7.80857 10.951 7.99007 10.0435 8.35306 9.25867C8.71606 8.47381 9.23357 7.87291 9.9056 7.45595C10.5825 7.03409 11.3674 6.82316 12.2602 6.82316C13.4963 6.82316 14.4921 7.15428 15.2475 7.8165C16.0029 8.47872 16.4395 9.40828 16.5572 10.6052H14.3498C14.2959 9.91353 14.1021 9.41319 13.7686 9.10415C13.4399 8.79021 12.9371 8.63324 12.2602 8.63324C11.5244 8.63324 10.9725 8.89812 10.6046 9.4279C10.2416 9.95277 10.0552 10.7695 10.0454 11.8781V12.6875C10.0454 13.8452 10.2195 14.6913 10.5678 15.226C10.921 15.7607 11.4753 16.028 12.2307 16.028C12.9126 16.028 13.4203 15.8735 13.7538 15.5645C14.0923 15.2505 14.2861 14.7674 14.3351 14.115H16.5425Z" fill="#CDB904"/>
</svg>
