<svg width="31" height="17" viewBox="0 0 31 17" fill="none" xmlns="http://www.w3.org/2000/svg">
<path d="M23.71 8.00977L24.2158 3.04688H29.3154V4.21582H25.2891L24.9883 6.92969C25.4759 6.64258 26.0296 6.49902 26.6494 6.49902C27.5563 6.49902 28.2764 6.7998 28.8096 7.40137C29.3428 7.99837 29.6094 8.80729 29.6094 9.82812C29.6094 10.8535 29.3314 11.6624 28.7754 12.2549C28.224 12.8428 27.4515 13.1367 26.458 13.1367C25.5785 13.1367 24.8607 12.8929 24.3047 12.4053C23.7487 11.9176 23.432 11.2432 23.3545 10.3818H24.5508C24.6283 10.9515 24.8311 11.3822 25.1592 11.6738C25.4873 11.9609 25.9202 12.1045 26.458 12.1045C27.0459 12.1045 27.5062 11.904 27.8389 11.5029C28.1761 11.1019 28.3447 10.5482 28.3447 9.8418C28.3447 9.17643 28.1624 8.64323 27.7979 8.24219C27.4378 7.83659 26.957 7.63379 26.3555 7.63379C25.804 7.63379 25.3711 7.75456 25.0566 7.99609L24.7217 8.26953L23.71 8.00977Z" fill="white"/>
<path d="M16.611 8.35692C16.611 12.8952 12.9239 16.5747 8.37508 16.5747C3.82622 16.5747 0.139167 12.8952 0.139167 8.35692C0.139167 3.81867 3.82622 0.139167 8.37508 0.139167C12.9239 0.139167 16.611 3.81867 16.611 8.35692Z" fill="#EBD408" stroke="#DAC403" stroke-width="0.278333"/>
<path d="M14.6869 8.35641C14.6869 11.8344 11.8612 14.6542 8.37517 14.6542C4.88913 14.6542 2.06348 11.8344 2.06348 8.35641C2.06348 4.87841 4.88913 2.0586 8.37517 2.0586C11.8612 2.0586 14.6869 4.87841 14.6869 8.35641Z" fill="#FFE34F" stroke="#FFE500" stroke-width="0.185556"/>
<path d="M10.982 8.65883C10.9281 9.40405 10.6522 9.9907 10.1543 10.4188C9.65965 10.8469 9.0064 11.061 8.19459 11.061C7.30668 11.061 6.60745 10.7629 6.0969 10.1667C5.58952 9.56736 5.33583 8.74604 5.33583 7.70274V7.2794C5.33583 6.61346 5.45316 6.02681 5.68783 5.51943C5.92249 5.01205 6.25704 4.62359 6.69148 4.35404C7.1291 4.08133 7.63648 3.94497 8.21362 3.94497C9.01274 3.94497 9.65648 4.15902 10.1448 4.58712C10.6332 5.01522 10.9154 5.61615 10.9915 6.3899H9.56451C9.52963 5.94277 9.40437 5.61932 9.18874 5.41954C8.97627 5.21659 8.65123 5.11511 8.21362 5.11511C7.73795 5.11511 7.3812 5.28635 7.14337 5.62883C6.9087 5.96814 6.7882 6.49613 6.78186 7.21281V7.73604C6.78186 8.48442 6.89443 9.03144 7.11958 9.37709C7.3479 9.72274 7.70624 9.89557 8.19459 9.89557C8.63538 9.89557 8.96359 9.79568 9.17922 9.5959C9.39803 9.39295 9.52329 9.08059 9.555 8.65883H10.982Z" fill="#CDB904"/>
</svg>
