<svg width="1054" height="359" viewBox="0 0 1054 359" fill="none" xmlns="http://www.w3.org/2000/svg">
<line x1="100.441" y1="22.4429" x2="406.443" y2="10.5593" stroke="black" stroke-width="3" stroke-linecap="round"/>
<line x1="72.4492" y1="39.4509" x2="518.452" y2="24.5841" stroke="black" stroke-width="3" stroke-linecap="round"/>
<line x1="562.5" y1="297.5" x2="740.5" y2="297.5" stroke="black" stroke-width="3" stroke-linecap="round"/>
<path d="M453.5 343.5L430.027 282.861C429.773 282.206 430.257 281.5 430.959 281.5H690.5M32 177V276.228C32 276.683 32.3071 277.08 32.7472 277.195L143 306M897.5 280.5H1013.5C1014.05 280.5 1014.5 280.052 1014.5 279.5V175M795.429 297.857L807.486 305.091C808.152 305.491 809 305.011 809 304.234V289.766C809 288.989 808.152 288.509 807.486 288.909L795.429 296.143C794.782 296.531 794.782 297.469 795.429 297.857ZM15.4647 140.87L3.49301 147.654C2.82638 148.032 2 147.55 2 146.784V133.216C2 132.45 2.82638 131.968 3.49301 132.346L15.4647 139.13C16.1407 139.513 16.1407 140.487 15.4647 140.87Z" stroke="black" stroke-width="3" stroke-linecap="round"/>
<circle cx="554.5" cy="11.5" r="10" stroke="black" stroke-width="3"/>
<circle cx="1042.5" cy="61.5" r="10" stroke="black" stroke-width="3"/>
<path d="M48 265L47 60L1001 30V266L48 265Z" fill="#212D69"/>
<line x1="601.452" y1="64.4532" x2="976.453" y2="52.5484" stroke="white" stroke-width="3" stroke-linecap="round"/>
<path d="M442.5 359L404 265.5L48 265L442.5 359Z" fill="#EF3E67"/>
<path d="M315.099 138.663L320.803 128.857H326.247L318.044 142.317L326.433 156H320.934L315.099 146.045L309.245 156H303.764L312.172 142.317L303.951 128.857H309.394L315.099 138.663ZM336.723 139.092C335.667 139.092 334.772 139.421 334.039 140.08C333.306 140.726 332.939 141.54 332.939 142.522H328.67C328.67 141.279 329.03 140.117 329.751 139.036C330.472 137.942 331.46 137.072 332.715 136.426C333.97 135.78 335.306 135.457 336.723 135.457C339.457 135.457 341.651 136.395 343.304 138.272C344.969 140.148 345.802 142.652 345.802 145.784V146.25C345.802 148.177 345.423 149.923 344.665 151.489C343.919 153.055 342.863 154.26 341.496 155.105C340.129 155.95 338.544 156.373 336.742 156.373C335.213 156.373 333.828 156.056 332.585 155.422C331.342 154.776 330.379 153.875 329.695 152.719C329.012 151.563 328.67 150.258 328.67 148.804H332.939C332.939 149.96 333.306 150.911 334.039 151.656C334.772 152.39 335.673 152.756 336.742 152.756C338.01 152.756 339.035 152.284 339.818 151.34C340.601 150.383 341.067 149.053 341.216 147.35H334.878V144.218H341.197C341.023 142.578 340.545 141.316 339.762 140.434C338.979 139.539 337.966 139.092 336.723 139.092ZM367.352 146.12C367.352 149.239 366.644 151.731 365.227 153.595C363.81 155.447 361.909 156.373 359.522 156.373C357.31 156.373 355.539 155.646 354.209 154.192V163.755H349.679V135.829H353.855L354.042 137.88C355.371 136.264 357.18 135.457 359.466 135.457C361.927 135.457 363.854 136.376 365.245 138.216C366.65 140.042 367.352 142.584 367.352 145.84V146.12ZM362.841 145.728C362.841 143.715 362.437 142.118 361.629 140.937C360.834 139.757 359.69 139.166 358.199 139.166C356.347 139.166 355.017 139.931 354.209 141.459V150.407C355.03 151.973 356.372 152.756 358.236 152.756C359.678 152.756 360.802 152.178 361.61 151.023C362.431 149.854 362.841 148.09 362.841 145.728ZM378.146 142.466L381.986 135.829H387.019L380.849 145.766L387.224 156H382.228L378.202 149.102L374.194 156H369.16L375.536 145.766L369.384 135.829H374.38L378.146 142.466ZM397.347 139.092C396.29 139.092 395.396 139.421 394.662 140.08C393.929 140.726 393.563 141.54 393.563 142.522H389.294C389.294 141.279 389.654 140.117 390.375 139.036C391.096 137.942 392.084 137.072 393.339 136.426C394.594 135.78 395.93 135.457 397.347 135.457C400.081 135.457 402.275 136.395 403.927 138.272C405.593 140.148 406.425 142.652 406.425 145.784V146.25C406.425 148.177 406.046 149.923 405.288 151.489C404.543 153.055 403.486 154.26 402.119 155.105C400.752 155.95 399.168 156.373 397.366 156.373C395.837 156.373 394.451 156.056 393.208 155.422C391.966 154.776 391.002 153.875 390.319 152.719C389.635 151.563 389.294 150.258 389.294 148.804H393.563C393.563 149.96 393.929 150.911 394.662 151.656C395.396 152.39 396.297 152.756 397.366 152.756C398.633 152.756 399.658 152.284 400.441 151.34C401.224 150.383 401.69 149.053 401.84 147.35H395.501V144.218H401.821C401.647 142.578 401.168 141.316 400.385 140.434C399.603 139.539 398.59 139.092 397.347 139.092ZM427.398 156H422.868V147.853H415.019V156H410.489V135.829H415.019V144.237H422.868V135.829H427.398V156ZM457.896 135.829V156H453.385V148.599H449.153L444.847 156H440.149L444.902 147.853C443.66 147.331 442.703 146.586 442.032 145.616C441.373 144.647 441.044 143.535 441.044 142.28C441.044 140.403 441.764 138.868 443.206 137.675C444.66 136.469 446.618 135.854 449.078 135.829H457.896ZM445.574 142.391C445.574 143.236 445.884 143.926 446.506 144.461C447.139 144.983 447.947 145.244 448.929 145.244H453.385V139.427H449.209C448.103 139.427 447.22 139.707 446.562 140.266C445.903 140.825 445.574 141.534 445.574 142.391ZM474.972 156C474.773 155.615 474.599 154.987 474.45 154.117C473.008 155.621 471.244 156.373 469.156 156.373C467.13 156.373 465.477 155.795 464.197 154.639C462.917 153.483 462.277 152.054 462.277 150.351C462.277 148.201 463.072 146.555 464.663 145.411C466.266 144.256 468.553 143.678 471.523 143.678H474.301V142.354C474.301 141.31 474.009 140.477 473.425 139.856C472.841 139.222 471.952 138.905 470.759 138.905C469.727 138.905 468.882 139.166 468.224 139.688C467.565 140.198 467.235 140.85 467.235 141.646H462.706C462.706 140.54 463.072 139.508 463.805 138.551C464.539 137.582 465.533 136.824 466.788 136.277C468.056 135.73 469.466 135.457 471.02 135.457C473.381 135.457 475.264 136.053 476.668 137.246C478.073 138.427 478.794 140.092 478.831 142.242V151.34C478.831 153.154 479.086 154.602 479.595 155.683V156H474.972ZM469.995 152.738C470.889 152.738 471.728 152.52 472.511 152.085C473.307 151.65 473.903 151.066 474.301 150.333V146.53H471.859C470.181 146.53 468.919 146.822 468.074 147.406C467.229 147.99 466.807 148.817 466.807 149.885C466.807 150.755 467.093 151.451 467.664 151.973C468.248 152.483 469.025 152.738 469.995 152.738ZM501.332 147.891H498.927V156H494.397V147.891H492.011L487.369 156H481.814L488.506 145.505L482.168 135.829H487.704L492.272 143.752H494.397V135.829H498.927V143.752H501.071L505.657 135.829H511.193L504.874 145.449L511.603 156H505.973L501.332 147.891ZM535.968 156C535.769 155.615 535.595 154.987 535.446 154.117C534.005 155.621 532.24 156.373 530.152 156.373C528.126 156.373 526.473 155.795 525.193 154.639C523.913 153.483 523.273 152.054 523.273 150.351C523.273 148.201 524.069 146.555 525.659 145.411C527.263 144.256 529.549 143.678 532.52 143.678H535.297V142.354C535.297 141.31 535.005 140.477 534.421 139.856C533.837 139.222 532.948 138.905 531.755 138.905C530.724 138.905 529.879 139.166 529.22 139.688C528.561 140.198 528.232 140.85 528.232 141.646H523.702C523.702 140.54 524.069 139.508 524.802 138.551C525.535 137.582 526.529 136.824 527.785 136.277C529.052 135.73 530.463 135.457 532.016 135.457C534.378 135.457 536.26 136.053 537.665 137.246C539.069 138.427 539.79 140.092 539.827 142.242V151.34C539.827 153.154 540.082 154.602 540.592 155.683V156H535.968ZM530.991 152.738C531.886 152.738 532.725 152.52 533.508 152.085C534.303 151.65 534.9 151.066 535.297 150.333V146.53H532.855C531.177 146.53 529.916 146.822 529.071 147.406C528.226 147.99 527.803 148.817 527.803 149.885C527.803 150.755 528.089 151.451 528.661 151.973C529.245 152.483 530.022 152.738 530.991 152.738ZM549.279 135.829V152.383H555.58V135.829H560.11V152.383H566.429V135.829H570.941V156H544.749V135.829H549.279ZM588.445 135.829H592.957V156H588.445V142.541L580.541 156H576.03V135.829H580.541V149.289L588.445 135.829ZM611.207 139.483H602.446V156H597.934V135.829H611.207V139.483ZM630.166 135.829V156H625.636V139.483H619.932L619.559 146.511C619.323 149.892 618.67 152.321 617.601 153.8C616.545 155.267 614.923 156 612.736 156H611.338L611.319 152.234L612.251 152.141C613.245 152.004 613.966 151.402 614.414 150.333C614.873 149.252 615.166 147.288 615.29 144.442L615.663 135.829H630.166ZM647.037 156C646.838 155.615 646.664 154.987 646.515 154.117C645.073 155.621 643.309 156.373 641.221 156.373C639.195 156.373 637.542 155.795 636.262 154.639C634.982 153.483 634.342 152.054 634.342 150.351C634.342 148.201 635.137 146.555 636.728 145.411C638.331 144.256 640.618 143.678 643.588 143.678H646.366V142.354C646.366 141.31 646.074 140.477 645.49 139.856C644.906 139.222 644.017 138.905 642.824 138.905C641.792 138.905 640.947 139.166 640.289 139.688C639.63 140.198 639.301 140.85 639.301 141.646H634.771C634.771 140.54 635.137 139.508 635.871 138.551C636.604 137.582 637.598 136.824 638.853 136.277C640.121 135.73 641.531 135.457 643.085 135.457C645.446 135.457 647.329 136.053 648.733 137.246C650.138 138.427 650.859 140.092 650.896 142.242V151.34C650.896 153.154 651.151 154.602 651.66 155.683V156H647.037ZM642.06 152.738C642.954 152.738 643.793 152.52 644.576 152.085C645.372 151.65 645.968 151.066 646.366 150.333V146.53H643.924C642.246 146.53 640.985 146.822 640.14 147.406C639.294 147.99 638.872 148.817 638.872 149.885C638.872 150.755 639.158 151.451 639.729 151.973C640.314 152.483 641.09 152.738 642.06 152.738ZM662.883 142.466L666.723 135.829H671.756L665.586 145.766L671.961 156H666.965L662.939 149.102L658.931 156H653.897L660.273 145.766L654.121 135.829H659.117L662.883 142.466ZM684.694 156V135.829H692.878C695.637 135.829 697.737 136.314 699.179 137.283C700.62 138.24 701.341 139.62 701.341 141.422C701.341 142.354 701.049 143.193 700.465 143.939C699.893 144.672 699.042 145.237 697.911 145.635C699.228 145.908 700.272 146.462 701.043 147.294C701.813 148.127 702.199 149.109 702.199 150.24C702.199 152.116 701.503 153.545 700.111 154.527C698.731 155.509 696.743 156 694.145 156H684.694ZM689.224 147.406V152.421H694.182C696.507 152.421 697.669 151.588 697.669 149.923C697.669 148.245 696.488 147.406 694.127 147.406H689.224ZM689.224 144.162H692.952C695.525 144.162 696.811 143.404 696.811 141.888C696.811 140.297 695.593 139.477 693.157 139.427H689.224V144.162ZM713.365 139.092C712.309 139.092 711.414 139.421 710.681 140.08C709.947 140.726 709.581 141.54 709.581 142.522H705.312C705.312 141.279 705.672 140.117 706.393 139.036C707.114 137.942 708.102 137.072 709.357 136.426C710.612 135.78 711.948 135.457 713.365 135.457C716.099 135.457 718.293 136.395 719.946 138.272C721.611 140.148 722.444 142.652 722.444 145.784V146.25C722.444 148.177 722.065 149.923 721.307 151.489C720.561 153.055 719.504 154.26 718.137 155.105C716.77 155.95 715.186 156.373 713.384 156.373C711.855 156.373 710.469 156.056 709.227 155.422C707.984 154.776 707.021 153.875 706.337 152.719C705.653 151.563 705.312 150.258 705.312 148.804H709.581C709.581 149.96 709.947 150.911 710.681 151.656C711.414 152.39 712.315 152.756 713.384 152.756C714.651 152.756 715.677 152.284 716.46 151.34C717.243 150.383 717.709 149.053 717.858 147.35H711.519V144.218H717.839C717.665 142.578 717.187 141.316 716.404 140.434C715.621 139.539 714.608 139.092 713.365 139.092ZM740.042 148.021C740.042 146.368 740.247 145.051 740.657 144.069C741.067 143.087 741.875 142.012 743.08 140.844C744.298 139.663 745.069 138.825 745.392 138.327C745.889 137.569 746.138 136.749 746.138 135.867C746.138 134.698 745.846 133.81 745.261 133.201C744.69 132.58 743.845 132.269 742.726 132.269C741.657 132.269 740.794 132.573 740.135 133.182C739.489 133.779 739.166 134.593 739.166 135.624H734.636C734.66 133.425 735.406 131.685 736.873 130.405C738.351 129.125 740.303 128.484 742.726 128.484C745.224 128.484 747.169 129.118 748.561 130.386C749.965 131.654 750.668 133.425 750.668 135.699C750.668 137.725 749.723 139.719 747.834 141.683L745.541 143.939C744.721 144.871 744.298 146.232 744.273 148.021H740.042ZM739.725 153.819C739.725 153.086 739.955 152.495 740.415 152.048C740.874 151.588 741.496 151.358 742.279 151.358C743.074 151.358 743.702 151.594 744.162 152.067C744.621 152.526 744.851 153.11 744.851 153.819C744.851 154.502 744.628 155.074 744.18 155.534C743.733 155.994 743.099 156.224 742.279 156.224C741.458 156.224 740.825 155.994 740.377 155.534C739.942 155.074 739.725 154.502 739.725 153.819Z" fill="white"/>
<circle cx="524.633" cy="210.633" r="26.6333" fill="white"/>
<path d="M524.633 198.1V223.745M524.633 223.745L513.666 213.881M524.633 223.745L535.6 213.881" stroke="#212D69" stroke-width="4.21795" stroke-linecap="round"/>
</svg>
