<svg width="68" height="69" viewBox="0 0 68 69" fill="none" xmlns="http://www.w3.org/2000/svg">
<circle cx="33.4898" cy="34.4329" r="11.1128" fill="#FFCB77"/>
<ellipse cx="33.5226" cy="34.2867" rx="13.5714" ry="17.1905" fill="white"/>
<path d="M55.2559 30.0335C49.6213 34.2108 42.937 34.7422 40.3262 31.2206C37.7154 27.6989 40.1667 21.4577 45.8014 17.2804C51.4361 13.1031 58.1204 12.5717 60.7312 16.0933C63.3419 19.615 60.8906 25.8562 55.2559 30.0335Z" fill="white"/>
<path d="M43.8501 14.5781C43.3651 21.5755 39.4266 27.0023 35.0532 26.6992C30.6798 26.3961 27.5276 20.4778 28.0127 13.4804C28.4977 6.48296 32.4362 1.05618 36.8096 1.35931C41.183 1.66244 44.3351 7.58071 43.8501 14.5781Z" fill="white"/>
<path d="M47.9112 51.1785C50.2313 57.7979 48.7583 64.3395 44.6211 65.7895C40.484 67.2396 35.2494 63.049 32.9294 56.4296C30.6093 49.8102 32.0823 43.2686 36.2194 41.8186C40.3566 40.3685 45.5911 44.5591 47.9112 51.1785Z" fill="white"/>
<path d="M29.19 57.8188C25.1696 63.5664 18.9983 66.1888 15.406 63.676C11.8137 61.1632 12.1609 54.4669 16.1813 48.7192C20.2017 42.9716 26.373 40.3493 29.9653 42.862C33.5576 45.3748 33.2105 52.0712 29.19 57.8188Z" fill="white"/>
<path d="M14.2007 45.1284C7.21837 45.7961 1.21973 42.7998 0.802384 38.4358C0.385037 34.0718 5.70702 29.9928 12.6894 29.325C19.6717 28.6573 25.6704 31.6537 26.0877 36.0176C26.5051 40.3816 21.1831 44.4606 14.2007 45.1284Z" fill="white"/>
<path d="M50.7105 48.687C44.0378 46.5249 39.7239 41.3914 41.0752 37.221C42.4265 33.0506 48.9312 31.4225 55.6039 33.5845C62.2766 35.7466 66.5904 40.8801 65.2391 45.0505C63.8878 49.2209 57.3831 50.849 50.7105 48.687Z" fill="white"/>
<path d="M25.173 14.5669C29.9552 19.6982 31.2321 26.2808 28.0251 29.2697C24.818 32.2586 18.3415 30.5218 13.5593 25.3906C8.77712 20.2593 7.50021 13.6767 10.7072 10.6878C13.9143 7.69892 20.3908 9.43567 25.173 14.5669Z" fill="white"/>
<circle cx="33.4898" cy="34.4329" r="11.1128" fill="#FFCB77"/>
</svg>
