<svg width="1015" height="216" viewBox="0 0 1015 216" fill="none" xmlns="http://www.w3.org/2000/svg">
<g filter="url(#filter0_d)">
<path d="M0 8H990C999.389 8 1007 15.6112 1007 25V191C1007 200.389 999.389 208 990 208H0V8Z" fill="white"/>
</g>
<path d="M111.712 51.4769H104.633V71H100.719V51.4769H93.7017V48.2959H111.712V51.4769ZM121.801 71C121.635 70.6777 121.489 70.1528 121.365 69.4251C120.159 70.6829 118.682 71.3119 116.936 71.3119C115.242 71.3119 113.859 70.8285 112.788 69.8617C111.717 68.8949 111.182 67.6994 111.182 66.2752C111.182 64.4767 111.847 63.0993 113.178 62.1429C114.519 61.1761 116.432 60.6927 118.916 60.6927H121.24V59.5856C121.24 58.7123 120.996 58.0158 120.507 57.496C120.018 56.9659 119.275 56.7008 118.277 56.7008C117.414 56.7008 116.707 56.9191 116.156 57.3557C115.605 57.7819 115.33 58.3277 115.33 58.993H111.541C111.541 58.0678 111.847 57.205 112.461 56.4045C113.074 55.5936 113.906 54.9595 114.956 54.5021C116.016 54.0447 117.196 53.816 118.495 53.816C120.471 53.816 122.045 54.315 123.22 55.3129C124.395 56.3005 124.998 57.6935 125.029 59.492V67.1016C125.029 68.6194 125.242 69.8305 125.668 70.7349V71H121.801ZM117.638 68.2711C118.386 68.2711 119.088 68.0892 119.743 67.7254C120.408 67.3615 120.907 66.8729 121.24 66.2596V63.0785H119.197C117.794 63.0785 116.739 63.3228 116.032 63.8114C115.325 64.3 114.971 64.9913 114.971 65.8853C114.971 66.613 115.21 67.1952 115.689 67.6318C116.177 68.058 116.827 68.2711 117.638 68.2711ZM143.289 71H139.5V64.1856H132.935V71H129.146V54.1278H132.935V61.1605H139.5V54.1278H143.289V71ZM147.406 67.9749C148.456 66.8002 149.157 65.6878 149.511 64.6379C149.875 63.5775 150.093 62.2261 150.166 60.5835L150.384 54.1278H162.095V67.9749H164.434V76.0211H160.66V71H149.838V76.0211H146.002L146.018 67.9749H147.406ZM151.85 67.9749H158.321V57.3869H154.064L153.955 60.6147C153.809 63.7126 153.108 66.166 151.85 67.9749ZM182.023 68.2867C182.969 68.2867 183.754 68.0112 184.378 67.4603C185.002 66.9093 185.334 66.2284 185.376 65.4175H188.947C188.905 66.4675 188.578 67.4499 187.964 68.3647C187.351 69.2691 186.519 69.9864 185.469 70.5166C184.419 71.0468 183.286 71.3119 182.07 71.3119C179.71 71.3119 177.839 70.5478 176.456 69.0196C175.074 67.4915 174.382 65.3811 174.382 62.6887V62.2988C174.382 59.7311 175.069 57.678 176.441 56.1394C177.813 54.5904 179.684 53.816 182.054 53.816C184.061 53.816 185.693 54.4033 186.951 55.578C188.219 56.7423 188.884 58.2757 188.947 60.1781H185.376C185.334 59.2113 185.002 58.416 184.378 57.7923C183.765 57.1686 182.98 56.8567 182.023 56.8567C180.797 56.8567 179.851 57.3037 179.185 58.1977C178.52 59.0814 178.182 60.4276 178.172 62.2365V62.8446C178.172 64.6742 178.499 66.0413 179.154 66.9457C179.819 67.8397 180.776 68.2867 182.023 68.2867ZM191.099 62.408C191.099 60.7551 191.426 59.2685 192.081 57.9482C192.736 56.6176 193.656 55.5988 194.841 54.8919C196.026 54.1746 197.388 53.816 198.927 53.816C201.203 53.816 203.049 54.5489 204.462 56.0146C205.887 57.4804 206.656 59.4244 206.77 61.8466L206.786 62.7354C206.786 64.3988 206.464 65.8853 205.819 67.1952C205.185 68.505 204.27 69.5186 203.075 70.2359C201.889 70.9532 200.517 71.3119 198.958 71.3119C196.577 71.3119 194.67 70.5218 193.235 68.9417C191.811 67.3511 191.099 65.2356 191.099 62.5951V62.408ZM194.888 62.7354C194.888 64.4715 195.247 65.8334 195.964 66.8209C196.681 67.7981 197.679 68.2867 198.958 68.2867C200.236 68.2867 201.229 67.7877 201.936 66.7898C202.653 65.7918 203.012 64.3312 203.012 62.408C203.012 60.7031 202.643 59.3517 201.905 58.3537C201.177 57.3557 200.185 56.8567 198.927 56.8567C197.69 56.8567 196.707 57.3505 195.979 58.3381C195.252 59.3153 194.888 60.7811 194.888 62.7354ZM224.282 71H220.492V64.1856H213.928V71H210.138V54.1278H213.928V61.1605H220.492V54.1278H224.282V71ZM238.862 54.1278H242.635V71H238.862V59.7415L232.25 71H228.476V54.1278H232.25V65.3863L238.862 54.1278ZM261.441 62.7354C261.441 65.3448 260.848 67.4291 259.663 68.9884C258.478 70.5374 256.888 71.3119 254.892 71.3119C253.041 71.3119 251.56 70.7037 250.448 69.4874V77.4869H246.658V54.1278H250.151L250.307 55.8431C251.42 54.4917 252.932 53.816 254.845 53.816C256.903 53.816 258.515 54.5852 259.679 56.1238C260.854 57.652 261.441 59.7779 261.441 62.5015V62.7354ZM257.667 62.408C257.667 60.7239 257.329 59.388 256.654 58.4005C255.988 57.4129 255.032 56.9191 253.785 56.9191C252.236 56.9191 251.123 57.5584 250.448 58.8371V66.322C251.134 67.6318 252.256 68.2867 253.816 68.2867C255.022 68.2867 255.962 67.8033 256.638 66.8365C257.324 65.8593 257.667 64.3832 257.667 62.408ZM270.47 59.6791L273.682 54.1278H277.892L272.731 62.4392L278.064 71H273.885L270.516 65.2304L267.164 71H262.954L268.287 62.4392L263.141 54.1278H267.32L270.47 59.6791ZM279.14 62.408C279.14 60.7551 279.467 59.2685 280.122 57.9482C280.777 56.6176 281.697 55.5988 282.882 54.8919C284.067 54.1746 285.429 53.816 286.968 53.816C289.244 53.816 291.089 54.5489 292.503 56.0146C293.927 57.4804 294.697 59.4244 294.811 61.8466L294.827 62.7354C294.827 64.3988 294.504 65.8853 293.86 67.1952C293.226 68.505 292.311 69.5186 291.115 70.2359C289.93 70.9532 288.558 71.3119 286.999 71.3119C284.618 71.3119 282.711 70.5218 281.276 68.9417C279.852 67.3511 279.14 65.2356 279.14 62.5951V62.408ZM282.929 62.7354C282.929 64.4715 283.287 65.8334 284.005 66.8209C284.722 67.7981 285.72 68.2867 286.999 68.2867C288.277 68.2867 289.27 67.7877 289.977 66.7898C290.694 65.7918 291.053 64.3312 291.053 62.408C291.053 60.7031 290.684 59.3517 289.946 58.3537C289.218 57.3557 288.225 56.8567 286.968 56.8567C285.73 56.8567 284.748 57.3505 284.02 58.3381C283.293 59.3153 282.929 60.7811 282.929 62.7354ZM312.12 54.1278V71H308.331V57.1842H303.559L303.247 63.0629C303.05 65.8905 302.504 67.9229 301.61 69.16C300.726 70.3867 299.37 71 297.54 71H296.37L296.355 67.8501L297.135 67.7721C297.966 67.6578 298.569 67.1536 298.943 66.2596C299.328 65.3552 299.572 63.7126 299.676 61.332L299.988 54.1278H312.12ZM329.429 57.1374H323.955V71H320.166V57.1374H314.755V54.1278H329.429V57.1374ZM330.785 62.408C330.785 60.7551 331.113 59.2685 331.768 57.9482C332.423 56.6176 333.343 55.5988 334.528 54.8919C335.713 54.1746 337.075 53.816 338.613 53.816C340.89 53.816 342.735 54.5489 344.149 56.0146C345.573 57.4804 346.342 59.4244 346.457 61.8466L346.472 62.7354C346.472 64.3988 346.15 65.8853 345.506 67.1952C344.871 68.505 343.957 69.5186 342.761 70.2359C341.576 70.9532 340.204 71.3119 338.644 71.3119C336.264 71.3119 334.356 70.5218 332.922 68.9417C331.497 67.3511 330.785 65.2356 330.785 62.5951V62.408ZM334.574 62.7354C334.574 64.4715 334.933 65.8334 335.65 66.8209C336.368 67.7981 337.366 68.2867 338.644 68.2867C339.923 68.2867 340.916 67.7877 341.623 66.7898C342.34 65.7918 342.699 64.3312 342.699 62.408C342.699 60.7031 342.33 59.3517 341.592 58.3537C340.864 57.3557 339.871 56.8567 338.613 56.8567C337.376 56.8567 336.394 57.3505 335.666 58.3381C334.938 59.3153 334.574 60.7811 334.574 62.7354ZM360.21 54.1278H363.984V71H360.21V59.7415L353.599 71H349.825V54.1278H353.599V65.3863L360.21 54.1278ZM361.988 47.6565C361.988 48.9664 361.53 50.0267 360.616 50.8376C359.701 51.6485 358.479 52.0539 356.951 52.0539C355.423 52.0539 354.202 51.6485 353.287 50.8376C352.372 50.0267 351.914 48.9664 351.914 47.6565H354.752C354.752 48.3426 354.945 48.878 355.329 49.2627C355.724 49.6369 356.265 49.824 356.951 49.824C357.637 49.824 358.173 49.6369 358.557 49.2627C358.942 48.878 359.134 48.3426 359.134 47.6565H361.988ZM382.899 68.2867C383.845 68.2867 384.63 68.0112 385.253 67.4603C385.877 66.9093 386.21 66.2284 386.251 65.4175H389.822C389.781 66.4675 389.453 67.4499 388.84 68.3647C388.227 69.2691 387.395 69.9864 386.345 70.5166C385.295 71.0468 384.162 71.3119 382.946 71.3119C380.586 71.3119 378.715 70.5478 377.332 69.0196C375.949 67.4915 375.258 65.3811 375.258 62.6887V62.2988C375.258 59.7311 375.944 57.678 377.316 56.1394C378.689 54.5904 380.56 53.816 382.93 53.816C384.936 53.816 386.568 54.4033 387.826 55.578C389.095 56.7423 389.76 58.2757 389.822 60.1781H386.251C386.21 59.2113 385.877 58.416 385.253 57.7923C384.64 57.1686 383.855 56.8567 382.899 56.8567C381.672 56.8567 380.726 57.3037 380.061 58.1977C379.395 59.0814 379.058 60.4276 379.047 62.2365V62.8446C379.047 64.6742 379.375 66.0413 380.03 66.9457C380.695 67.8397 381.651 68.2867 382.899 68.2867ZM402.765 71C402.599 70.6777 402.453 70.1528 402.328 69.4251C401.122 70.6829 399.646 71.3119 397.9 71.3119C396.205 71.3119 394.823 70.8285 393.752 69.8617C392.681 68.8949 392.146 67.6994 392.146 66.2752C392.146 64.4767 392.811 63.0993 394.142 62.1429C395.483 61.1761 397.396 60.6927 399.88 60.6927H402.204V59.5856C402.204 58.7123 401.959 58.0158 401.471 57.496C400.982 56.9659 400.239 56.7008 399.241 56.7008C398.378 56.7008 397.671 56.9191 397.12 57.3557C396.569 57.7819 396.294 58.3277 396.294 58.993H392.504C392.504 58.0678 392.811 57.205 393.424 56.4045C394.038 55.5936 394.869 54.9595 395.919 54.5021C396.98 54.0447 398.16 53.816 399.459 53.816C401.434 53.816 403.009 54.315 404.184 55.3129C405.359 56.3005 405.962 57.6935 405.993 59.492V67.1016C405.993 68.6194 406.206 69.8305 406.632 70.7349V71H402.765ZM398.601 68.2711C399.35 68.2711 400.052 68.0892 400.707 67.7254C401.372 67.3615 401.871 66.8729 402.204 66.2596V63.0785H400.161C398.757 63.0785 397.702 63.3228 396.995 63.8114C396.288 64.3 395.935 64.9913 395.935 65.8853C395.935 66.613 396.174 67.1952 396.652 67.6318C397.141 68.058 397.791 68.2711 398.601 68.2711ZM424.253 71H420.464V64.1856H413.899V71H410.109V54.1278H413.899V61.1605H420.464V54.1278H424.253V71ZM438.38 71C438.214 70.6777 438.069 70.1528 437.944 69.4251C436.738 70.6829 435.262 71.3119 433.515 71.3119C431.821 71.3119 430.438 70.8285 429.367 69.8617C428.297 68.8949 427.761 67.6994 427.761 66.2752C427.761 64.4767 428.427 63.0993 429.757 62.1429C431.098 61.1761 433.011 60.6927 435.496 60.6927H437.819V59.5856C437.819 58.7123 437.575 58.0158 437.086 57.496C436.598 56.9659 435.854 56.7008 434.856 56.7008C433.993 56.7008 433.287 56.9191 432.736 57.3557C432.185 57.7819 431.909 58.3277 431.909 58.993H428.12C428.12 58.0678 428.427 57.205 429.04 56.4045C429.653 55.5936 430.485 54.9595 431.535 54.5021C432.595 54.0447 433.775 53.816 435.075 53.816C437.05 53.816 438.625 54.315 439.799 55.3129C440.974 56.3005 441.577 57.6935 441.608 59.492V67.1016C441.608 68.6194 441.821 69.8305 442.248 70.7349V71H438.38ZM434.217 68.2711C434.965 68.2711 435.667 68.0892 436.322 67.7254C436.987 67.3615 437.486 66.8729 437.819 66.2596V63.0785H435.776C434.373 63.0785 433.318 63.3228 432.611 63.8114C431.904 64.3 431.55 64.9913 431.55 65.8853C431.55 66.613 431.79 67.1952 432.268 67.6318C432.756 68.058 433.406 68.2711 434.217 68.2711ZM456.812 57.1842H449.483V71H445.709V54.1278H456.812V57.1842ZM456.656 67.9749C457.706 66.8002 458.408 65.6878 458.761 64.6379C459.125 63.5775 459.343 62.2261 459.416 60.5835L459.634 54.1278H471.345V67.9749H473.684V76.0211H469.91V71H459.089V76.0211H455.253L455.268 67.9749H456.656ZM461.1 67.9749H467.571V57.3869H463.314L463.205 60.6147C463.06 63.7126 462.358 66.166 461.1 67.9749ZM486.471 71C486.304 70.6777 486.159 70.1528 486.034 69.4251C484.828 70.6829 483.352 71.3119 481.606 71.3119C479.911 71.3119 478.528 70.8285 477.458 69.8617C476.387 68.8949 475.852 67.6994 475.852 66.2752C475.852 64.4767 476.517 63.0993 477.848 62.1429C479.189 61.1761 481.101 60.6927 483.586 60.6927H485.909V59.5856C485.909 58.7123 485.665 58.0158 485.177 57.496C484.688 56.9659 483.945 56.7008 482.947 56.7008C482.084 56.7008 481.377 56.9191 480.826 57.3557C480.275 57.7819 479.999 58.3277 479.999 58.993H476.21C476.21 58.0678 476.517 57.205 477.13 56.4045C477.744 55.5936 478.575 54.9595 479.625 54.5021C480.686 54.0447 481.865 53.816 483.165 53.816C485.14 53.816 486.715 54.315 487.89 55.3129C489.064 56.3005 489.667 57.6935 489.699 59.492V67.1016C489.699 68.6194 489.912 69.8305 490.338 70.7349V71H486.471ZM482.307 68.2711C483.056 68.2711 483.758 68.0892 484.412 67.7254C485.078 67.3615 485.577 66.8729 485.909 66.2596V63.0785H483.867C482.463 63.0785 481.408 63.3228 480.701 63.8114C479.994 64.3 479.641 64.9913 479.641 65.8853C479.641 66.613 479.88 67.1952 480.358 67.6318C480.847 68.058 481.496 68.2711 482.307 68.2711ZM508.52 64.2168H506.508V71H502.719V64.2168H500.723L496.84 71H492.194L497.792 62.2209L492.49 54.1278H497.121L500.942 60.7551H502.719V54.1278H506.508V60.7551H508.302L512.138 54.1278H516.769L511.483 62.1741L517.112 71H512.403L508.52 64.2168ZM535.356 55.0634C537.477 55.0634 539.177 55.7755 540.455 57.1998C541.734 58.6136 542.373 60.5368 542.373 62.9693V63.1565C542.373 65.5891 541.677 67.559 540.284 69.0664C538.901 70.5738 537.02 71.3275 534.639 71.3275C532.321 71.3275 530.45 70.5582 529.025 69.0196C527.601 67.4811 526.889 65.3811 526.889 62.7199V61.6283C526.889 57.9898 527.534 55.1102 528.823 52.9895C530.112 50.8688 532.035 49.5433 534.592 49.0132C536.027 48.7221 536.952 48.4154 537.368 48.0931C537.794 47.7605 538.007 47.3135 538.007 46.7521H541.064C541.064 47.8021 540.892 48.6545 540.549 49.3094C540.206 49.9644 539.681 50.4997 538.974 50.9156C538.267 51.321 537.051 51.7056 535.325 52.0695C533.745 52.4022 532.539 52.9947 531.708 53.8472C530.886 54.6996 530.335 55.8795 530.055 57.3869C531.562 55.8379 533.329 55.0634 535.356 55.0634ZM534.608 58.1042C533.381 58.1042 532.42 58.52 531.723 59.3517C531.027 60.1729 530.678 61.4412 530.678 63.1565C530.678 64.7782 531.021 66.0413 531.708 66.9457C532.394 67.8501 533.371 68.3023 534.639 68.3023C535.897 68.3023 536.869 67.8501 537.555 66.9457C538.252 66.0309 538.6 64.6586 538.6 62.829C538.6 61.3736 538.252 60.2249 537.555 59.3828C536.869 58.5304 535.887 58.1042 534.608 58.1042ZM555.425 71C555.259 70.6777 555.113 70.1528 554.989 69.4251C553.783 70.6829 552.307 71.3119 550.56 71.3119C548.866 71.3119 547.483 70.8285 546.412 69.8617C545.341 68.8949 544.806 67.6994 544.806 66.2752C544.806 64.4767 545.471 63.0993 546.802 62.1429C548.143 61.1761 550.056 60.6927 552.54 60.6927H554.864V59.5856C554.864 58.7123 554.62 58.0158 554.131 57.496C553.642 56.9659 552.899 56.7008 551.901 56.7008C551.038 56.7008 550.331 56.9191 549.78 57.3557C549.229 57.7819 548.954 58.3277 548.954 58.993H545.165C545.165 58.0678 545.471 57.205 546.085 56.4045C546.698 55.5936 547.53 54.9595 548.58 54.5021C549.64 54.0447 550.82 53.816 552.119 53.816C554.095 53.816 555.67 54.315 556.844 55.3129C558.019 56.3005 558.622 57.6935 558.653 59.492V67.1016C558.653 68.6194 558.866 69.8305 559.292 70.7349V71H555.425ZM551.262 68.2711C552.01 68.2711 552.712 68.0892 553.367 67.7254C554.032 67.3615 554.531 66.8729 554.864 66.2596V63.0785H552.821C551.418 63.0785 550.363 63.3228 549.656 63.8114C548.949 64.3 548.595 64.9913 548.595 65.8853C548.595 66.613 548.834 67.1952 549.313 67.6318C549.801 68.058 550.451 68.2711 551.262 68.2711ZM573.155 54.1278H576.929V71H573.155V59.7415L566.543 71H562.77V54.1278H566.543V65.3863L573.155 54.1278ZM574.933 47.6565C574.933 48.9664 574.475 50.0267 573.56 50.8376C572.646 51.6485 571.424 52.0539 569.896 52.0539C568.368 52.0539 567.146 51.6485 566.232 50.8376C565.317 50.0267 564.859 48.9664 564.859 47.6565H567.697C567.697 48.3426 567.89 48.878 568.274 49.2627C568.669 49.6369 569.21 49.824 569.896 49.824C570.582 49.824 571.117 49.6369 571.502 49.2627C571.887 48.878 572.079 48.3426 572.079 47.6565H574.933ZM595.251 71H591.462V64.1856H584.897V71H581.108V54.1278H584.897V61.1605H591.462V54.1278H595.251V71ZM609.379 71C609.212 70.6777 609.067 70.1528 608.942 69.4251C607.736 70.6829 606.26 71.3119 604.514 71.3119C602.819 71.3119 601.436 70.8285 600.366 69.8617C599.295 68.8949 598.76 67.6994 598.76 66.2752C598.76 64.4767 599.425 63.0993 600.756 62.1429C602.097 61.1761 604.009 60.6927 606.494 60.6927H608.817V59.5856C608.817 58.7123 608.573 58.0158 608.084 57.496C607.596 56.9659 606.853 56.7008 605.855 56.7008C604.992 56.7008 604.285 56.9191 603.734 57.3557C603.183 57.7819 602.907 58.3277 602.907 58.993H599.118C599.118 58.0678 599.425 57.205 600.038 56.4045C600.652 55.5936 601.483 54.9595 602.533 54.5021C603.594 54.0447 604.773 53.816 606.073 53.816C608.048 53.816 609.623 54.315 610.798 55.3129C611.972 56.3005 612.575 57.6935 612.607 59.492V67.1016C612.607 68.6194 612.82 69.8305 613.246 70.7349V71H609.379ZM605.215 68.2711C605.964 68.2711 606.665 68.0892 607.32 67.7254C607.986 67.3615 608.485 66.8729 608.817 66.2596V63.0785H606.775C605.371 63.0785 604.316 63.3228 603.609 63.8114C602.902 64.3 602.549 64.9913 602.549 65.8853C602.549 66.613 602.788 67.1952 603.266 67.6318C603.755 68.058 604.404 68.2711 605.215 68.2711ZM630.43 65.5735L633.861 54.1278H637.899L631.194 73.5573C630.165 76.3954 628.418 77.8144 625.955 77.8144C625.404 77.8144 624.796 77.7208 624.13 77.5337V74.6021L624.847 74.6489C625.804 74.6489 626.521 74.4722 626.999 74.1187C627.488 73.7756 627.873 73.1935 628.153 72.3722L628.699 70.922L622.774 54.1278H626.859L630.43 65.5735ZM645.992 65.5735L649.423 54.1278H653.462L646.756 73.5573C645.727 76.3954 643.981 77.8144 641.517 77.8144C640.966 77.8144 640.358 77.7208 639.692 77.5337V74.6021L640.41 74.6489C641.366 74.6489 642.084 74.4722 642.562 74.1187C643.05 73.7756 643.435 73.1935 643.716 72.3722L644.261 70.922L638.336 54.1278H642.421L645.992 65.5735ZM667.121 64.326C667.121 62.9434 667.293 61.8414 667.636 61.0202C667.979 60.1989 668.655 59.2997 669.663 58.3225C670.682 57.3349 671.327 56.6332 671.597 56.2174C672.013 55.5832 672.221 54.8971 672.221 54.159C672.221 53.1818 671.976 52.4385 671.488 51.9291C671.009 51.4094 670.303 51.1495 669.367 51.1495C668.473 51.1495 667.75 51.4042 667.199 51.9136C666.659 52.4125 666.389 53.0935 666.389 53.9563H662.599C662.62 52.1163 663.244 50.6609 664.471 49.5901C665.708 48.5194 667.34 47.984 669.367 47.984C671.456 47.984 673.083 48.5142 674.248 49.5745C675.422 50.6349 676.01 52.1163 676.01 54.0187C676.01 55.7132 675.22 57.3817 673.64 59.0242L671.722 60.911C671.035 61.6907 670.682 62.829 670.661 64.326H667.121ZM666.856 69.1756C666.856 68.5622 667.049 68.0684 667.433 67.6942C667.818 67.3095 668.338 67.1172 668.993 67.1172C669.658 67.1172 670.183 67.3147 670.568 67.7098C670.952 68.0944 671.145 68.583 671.145 69.1756C671.145 69.7473 670.957 70.2255 670.583 70.6102C670.209 70.9948 669.679 71.1871 668.993 71.1871C668.307 71.1871 667.776 70.9948 667.402 70.6102C667.038 70.2255 666.856 69.7473 666.856 69.1756ZM702.924 51.4769H695.845V71H691.931V51.4769H684.914V48.2959H702.924V51.4769ZM709.614 56.8567C708.73 56.8567 707.982 57.1322 707.368 57.6832C706.755 58.2237 706.448 58.9046 706.448 59.7259H702.877C702.877 58.6863 703.179 57.7143 703.782 56.8099C704.385 55.8951 705.211 55.1674 706.261 54.6268C707.311 54.0863 708.429 53.816 709.614 53.816C711.901 53.816 713.736 54.6008 715.118 56.1706C716.511 57.7403 717.208 59.8351 717.208 62.4548V62.8446C717.208 64.4559 716.891 65.9165 716.257 67.2264C715.633 68.5362 714.749 69.5446 713.606 70.2515C712.462 70.9584 711.137 71.3119 709.629 71.3119C708.351 71.3119 707.192 71.0468 706.152 70.5166C705.112 69.976 704.307 69.2223 703.735 68.2555C703.163 67.2887 702.877 66.1972 702.877 64.9809H706.448C706.448 65.9477 706.755 66.743 707.368 67.3667C707.982 67.9801 708.735 68.2867 709.629 68.2867C710.69 68.2867 711.547 67.8917 712.202 67.1016C712.857 66.3012 713.247 65.1888 713.372 63.7646H708.07V61.1449H713.356C713.211 59.7727 712.81 58.7175 712.156 57.9794C711.501 57.2309 710.653 56.8567 709.614 56.8567ZM731.694 57.1842H724.365V71H720.592V54.1278H731.694V57.1842ZM734.127 71V54.1278H740.972C743.28 54.1278 745.037 54.5333 746.243 55.3441C747.449 56.1446 748.052 57.2985 748.052 58.8059C748.052 59.5856 747.807 60.2873 747.319 60.911C746.841 61.5243 746.129 61.9974 745.183 62.33C746.284 62.5587 747.158 63.0213 747.802 63.7178C748.447 64.4143 748.769 65.2356 748.769 66.1816C748.769 67.7514 748.187 68.9469 747.023 69.7681C745.869 70.5894 744.205 71 742.033 71H734.127ZM737.916 63.8114V68.006H742.064C744.008 68.006 744.98 67.3095 744.98 65.9165C744.98 64.5131 743.992 63.8114 742.017 63.8114H737.916ZM737.916 61.0981H741.035C743.187 61.0981 744.262 60.464 744.262 59.1957C744.262 57.8651 743.244 57.179 741.206 57.1374H737.916V61.0981ZM758.11 56.8567C757.226 56.8567 756.477 57.1322 755.864 57.6832C755.251 58.2237 754.944 58.9046 754.944 59.7259H751.373C751.373 58.6863 751.675 57.7143 752.278 56.8099C752.881 55.8951 753.707 55.1674 754.757 54.6268C755.807 54.0863 756.924 53.816 758.11 53.816C760.397 53.816 762.231 54.6008 763.614 56.1706C765.007 57.7403 765.704 59.8351 765.704 62.4548V62.8446C765.704 64.4559 765.387 65.9165 764.752 67.2264C764.129 68.5362 763.245 69.5446 762.102 70.2515C760.958 70.9584 759.633 71.3119 758.125 71.3119C756.846 71.3119 755.687 71.0468 754.648 70.5166C753.608 69.976 752.803 69.2223 752.231 68.2555C751.659 67.2887 751.373 66.1972 751.373 64.9809H754.944C754.944 65.9477 755.251 66.743 755.864 67.3667C756.477 67.9801 757.231 68.2867 758.125 68.2867C759.186 68.2867 760.043 67.8917 760.698 67.1016C761.353 66.3012 761.743 65.1888 761.868 63.7646H756.566V61.1449H761.852C761.706 59.7727 761.306 58.7175 760.651 57.9794C759.996 57.2309 759.149 56.8567 758.11 56.8567ZM783.075 54.1278V71H779.285V57.1842H774.514L774.202 63.0629C774.004 65.8905 773.459 67.9229 772.565 69.16C771.681 70.3867 770.324 71 768.495 71H767.325L767.31 67.8501L768.089 67.7721C768.921 67.6578 769.524 67.1536 769.898 66.2596C770.283 65.3552 770.527 63.7126 770.631 61.332L770.943 54.1278H783.075ZM808.336 57.1374H802.863V71H799.074V57.1374H793.663V54.1278H808.336V57.1374ZM816.959 65.5735L820.39 54.1278H824.429L817.724 73.5573C816.694 76.3954 814.948 77.8144 812.484 77.8144C811.933 77.8144 811.325 77.7208 810.66 77.5337V74.6021L811.377 74.6489C812.333 74.6489 813.051 74.4722 813.529 74.1187C814.017 73.7756 814.402 73.1935 814.683 72.3722L815.229 70.922L809.303 54.1278H813.389L816.959 65.5735ZM841.394 62.7354C841.394 65.3448 840.802 67.4291 839.617 68.9884C838.432 70.5374 836.841 71.3119 834.845 71.3119C832.995 71.3119 831.513 70.7037 830.401 69.4874V77.4869H826.612V54.1278H830.105L830.261 55.8431C831.373 54.4917 832.886 53.816 834.798 53.816C836.857 53.816 838.468 54.5852 839.632 56.1238C840.807 57.652 841.394 59.7779 841.394 62.5015V62.7354ZM837.621 62.408C837.621 60.7239 837.283 59.388 836.607 58.4005C835.942 57.4129 834.986 56.9191 833.738 56.9191C832.189 56.9191 831.077 57.5584 830.401 58.8371V66.322C831.087 67.6318 832.21 68.2867 833.769 68.2867C834.975 68.2867 835.916 67.8033 836.592 66.8365C837.278 65.8593 837.621 64.3832 837.621 62.408ZM848.552 54.1278V67.9749H853.822V54.1278H857.612V67.9749H862.898V54.1278H866.671V71H844.763V54.1278H848.552ZM880.862 71C880.695 70.6777 880.55 70.1528 880.425 69.4251C879.219 70.6829 877.743 71.3119 875.996 71.3119C874.302 71.3119 872.919 70.8285 871.849 69.8617C870.778 68.8949 870.242 67.6994 870.242 66.2752C870.242 64.4767 870.908 63.0993 872.238 62.1429C873.579 61.1761 875.492 60.6927 877.977 60.6927H880.3V59.5856C880.3 58.7123 880.056 58.0158 879.567 57.496C879.079 56.9659 878.335 56.7008 877.337 56.7008C876.475 56.7008 875.768 56.9191 875.217 57.3557C874.666 57.7819 874.39 58.3277 874.39 58.993H870.601C870.601 58.0678 870.908 57.205 871.521 56.4045C872.134 55.5936 872.966 54.9595 874.016 54.5021C875.076 54.0447 876.256 53.816 877.556 53.816C879.531 53.816 881.106 54.315 882.281 55.3129C883.455 56.3005 884.058 57.6935 884.089 59.492V67.1016C884.089 68.6194 884.303 69.8305 884.729 70.7349V71H880.862ZM876.698 68.2711C877.447 68.2711 878.148 68.0892 878.803 67.7254C879.469 67.3615 879.968 66.8729 880.3 66.2596V63.0785H878.257C876.854 63.0785 875.799 63.3228 875.092 63.8114C874.385 64.3 874.032 64.9913 874.032 65.8853C874.032 66.613 874.271 67.1952 874.749 67.6318C875.238 68.058 875.887 68.2711 876.698 68.2711ZM898.139 71C897.973 70.6777 897.827 70.1528 897.703 69.4251C896.497 70.6829 895.02 71.3119 893.274 71.3119C891.579 71.3119 890.197 70.8285 889.126 69.8617C888.055 68.8949 887.52 67.6994 887.52 66.2752C887.52 64.4767 888.185 63.0993 889.516 62.1429C890.857 61.1761 892.77 60.6927 895.254 60.6927H897.578V59.5856C897.578 58.7123 897.334 58.0158 896.845 57.496C896.356 56.9659 895.613 56.7008 894.615 56.7008C893.752 56.7008 893.045 56.9191 892.494 57.3557C891.943 57.7819 891.668 58.3277 891.668 58.993H887.879C887.879 58.0678 888.185 57.205 888.799 56.4045C889.412 55.5936 890.244 54.9595 891.294 54.5021C892.354 54.0447 893.534 53.816 894.833 53.816C896.809 53.816 898.383 54.315 899.558 55.3129C900.733 56.3005 901.336 57.6935 901.367 59.492V67.1016C901.367 68.6194 901.58 69.8305 902.006 70.7349V71H898.139ZM893.976 68.2711C894.724 68.2711 895.426 68.0892 896.081 67.7254C896.746 67.3615 897.245 66.8729 897.578 66.2596V63.0785H895.535C894.132 63.0785 893.076 63.3228 892.37 63.8114C891.663 64.3 891.309 64.9913 891.309 65.8853C891.309 66.613 891.548 67.1952 892.027 67.6318C892.515 68.058 893.165 68.2711 893.976 68.2711ZM905.406 67.9749C906.456 66.8002 907.157 65.6878 907.511 64.6379C907.875 63.5775 908.093 62.2261 908.166 60.5835L908.384 54.1278H920.095V67.9749H922.434V76.0211H918.66V71H907.838V76.0211H904.002L904.018 67.9749H905.406ZM909.85 67.9749H916.321V57.3869H912.064L911.955 60.6147C911.809 63.7126 911.108 66.166 909.85 67.9749ZM939.353 66.088L943.033 54.1278H946.947L941.193 70.3451V77.5025H937.404V70.2671L931.65 54.1278H935.564L939.353 66.088ZM962.057 58.7435C962.057 59.492 961.828 60.1833 961.371 60.8174C960.924 61.4412 960.29 61.9402 959.468 62.3144C961.402 62.9901 962.369 64.2948 962.369 66.2284C962.369 67.7773 961.74 69.0144 960.482 69.9396C959.224 70.8545 957.54 71.3119 955.43 71.3119C954.141 71.3119 952.966 71.0988 951.906 70.6725C950.845 70.2359 950.019 69.6226 949.426 68.8325C948.834 68.032 948.537 67.086 948.537 65.9945H952.311C952.311 66.6806 952.618 67.2576 953.231 67.7254C953.844 68.1828 954.619 68.4115 955.554 68.4115C956.48 68.4115 957.213 68.1984 957.753 67.7721C958.304 67.3355 958.58 66.769 958.58 66.0725C958.58 65.2512 958.34 64.6586 957.862 64.2948C957.384 63.9309 956.646 63.749 955.648 63.749H952.935V61.0202H955.742C957.436 60.9994 958.283 60.3029 958.283 58.9306C958.283 58.2445 958.039 57.7091 957.55 57.3245C957.062 56.9399 956.391 56.7475 955.539 56.7475C954.707 56.7475 954.005 56.9555 953.434 57.3713C952.862 57.7767 952.576 58.2913 952.576 58.915H948.802C948.802 57.4285 949.426 56.2122 950.674 55.2662C951.921 54.3098 953.506 53.8316 955.43 53.8316C957.519 53.8316 959.146 54.2578 960.31 55.1102C961.475 55.9627 962.057 57.1738 962.057 58.7435Z" fill="#212D69"/>
<path d="M476 142L476.977 139.699L476 142ZM523 107.5L524.962 105.951L523 107.5ZM489 128L486.696 128.97L486.743 129.08L486.799 129.185L489 128ZM708 150.5L709.346 152.607L712.878 150.35L709.214 148.315L708 150.5ZM449.523 92.6652C448.249 102.096 448.178 112.273 451.694 121.496C455.252 130.829 462.392 138.942 475.024 144.301L476.977 139.699C465.522 134.839 459.411 127.702 456.366 119.715C453.279 111.618 453.253 102.404 454.478 93.3348L449.523 92.6652ZM475.024 144.301C492.51 151.72 508.364 146.711 518.18 137.682C523.065 133.19 526.526 127.638 527.913 122.032C529.305 116.405 528.621 110.585 524.962 105.951L521.038 109.049C523.529 112.205 524.17 116.342 523.059 120.832C521.943 125.343 519.073 130.068 514.795 134.002C506.286 141.829 492.491 146.28 476.977 139.699L475.024 144.301ZM524.962 105.951C516.789 95.5977 504.014 93.1285 494.747 97.5669C490.084 99.7999 486.358 103.775 484.694 109.244C483.037 114.691 483.497 121.372 486.696 128.97L491.305 127.03C488.439 120.224 488.241 114.765 489.478 110.699C490.708 106.654 493.428 103.742 496.906 102.076C503.921 98.717 514.212 100.402 521.038 109.049L524.962 105.951ZM486.799 129.185C491.707 138.3 503.498 144.332 518.631 148.414C533.941 152.543 553.423 154.868 574.743 155.997C617.404 158.255 667.908 155.745 708.17 152.994L707.83 148.006C667.592 150.755 617.346 153.245 575.007 151.003C553.827 149.882 534.747 147.582 519.933 143.586C504.941 139.543 495.044 133.95 491.202 126.815L486.799 129.185ZM709.214 148.315L691.214 138.315L688.786 142.685L706.786 152.685L709.214 148.315ZM706.654 148.393L688.654 159.893L691.346 164.107L709.346 152.607L706.654 148.393Z" fill="#212D69"/>
<defs>
<filter id="filter0_d" x="-8" y="0" width="1023" height="216" filterUnits="userSpaceOnUse" color-interpolation-filters="sRGB">
<feFlood flood-opacity="0" result="BackgroundImageFix"/>
<feColorMatrix in="SourceAlpha" type="matrix" values="0 0 0 0 0 0 0 0 0 0 0 0 0 0 0 0 0 0 127 0" result="hardAlpha"/>
<feOffset/>
<feGaussianBlur stdDeviation="4"/>
<feComposite in2="hardAlpha" operator="out"/>
<feColorMatrix type="matrix" values="0 0 0 0 0 0 0 0 0 0 0 0 0 0 0 0 0 0 0.25 0"/>
<feBlend mode="normal" in2="BackgroundImageFix" result="effect1_dropShadow"/>
<feBlend mode="normal" in="SourceGraphic" in2="effect1_dropShadow" result="shape"/>
</filter>
</defs>
</svg>
