<svg width="97" height="96" viewBox="0 0 97 96" fill="none" xmlns="http://www.w3.org/2000/svg">
<circle cx="48.0269" cy="48" r="44.0222" transform="rotate(-0.201916 48.0269 48)" stroke="#212D5B" stroke-width="7.61905"/>
<path d="M44.7064 58.9741C44.6951 55.7624 45.0845 53.2014 45.8746 51.2909C46.6648 49.3804 48.227 47.2861 50.5614 45.008C52.9197 42.7056 54.4112 41.0703 55.0356 40.1022C55.9963 38.6258 56.4736 37.0304 56.4676 35.3159C56.4596 33.046 55.8861 31.3214 54.7469 30.1422C53.6319 28.9387 51.9877 28.3408 49.8144 28.3485C47.7377 28.3558 46.0616 28.9533 44.7859 30.1411C43.5343 31.3046 42.912 32.8885 42.9191 34.8927L34.1173 34.9238C34.1505 30.6494 35.5874 27.2637 38.4281 24.7664C41.2929 22.2691 45.0797 21.0121 49.7885 20.9955C54.6422 20.9784 58.4257 22.1966 61.1389 24.6502C63.8762 27.1036 65.2527 30.5398 65.2683 34.9589C65.2822 38.8949 63.4606 42.7771 59.8036 46.6054L55.3638 51.0039C53.7764 52.8206 52.9647 55.4676 52.9287 58.9451L44.7064 58.9741ZM44.1303 70.2411C44.1253 68.8164 44.568 67.6678 45.4584 66.7954C46.3487 65.8987 47.5545 65.4478 49.0758 65.4424C50.6213 65.4369 51.8424 65.8915 52.7391 66.8059C53.6357 67.6962 54.0864 68.8296 54.0912 70.206C54.0959 71.5341 53.6652 72.6465 52.799 73.543C51.9328 74.4395 50.7029 74.8906 49.1091 74.8962C47.5154 74.9018 46.2823 74.4594 45.4098 73.569C44.5615 72.6785 44.135 71.5692 44.1303 70.2411Z" fill="#212D5B"/>
</svg>
