<svg width="49" height="50" viewBox="0 0 49 50" fill="none" xmlns="http://www.w3.org/2000/svg">
<path d="M24.5 0.667969C10.976 0.667969 0 11.644 0 25.168C0 38.692 10.976 49.668 24.5 49.668C38.024 49.668 49 38.692 49 25.168C49 11.644 38.024 0.667969 24.5 0.667969ZM12.4215 40.554C13.475 38.349 19.894 36.193 24.5 36.193C29.106 36.193 35.5495 38.349 36.5785 40.554C33.2465 43.2 29.057 44.768 24.5 44.768C19.943 44.768 15.7535 43.2 12.4215 40.554ZM40.082 37.0015C36.5785 32.7385 28.077 31.293 24.5 31.293C20.923 31.293 12.4215 32.7385 8.918 37.0015C6.419 33.7185 4.9 29.627 4.9 25.168C4.9 14.3635 13.6955 5.56797 24.5 5.56797C35.3045 5.56797 44.1 14.3635 44.1 25.168C44.1 29.627 42.581 33.7185 40.082 37.0015ZM24.5 10.468C19.747 10.468 15.925 14.29 15.925 19.043C15.925 23.796 19.747 27.618 24.5 27.618C29.253 27.618 33.075 23.796 33.075 19.043C33.075 14.29 29.253 10.468 24.5 10.468ZM24.5 22.718C22.4665 22.718 20.825 21.0765 20.825 19.043C20.825 17.0095 22.4665 15.368 24.5 15.368C26.5335 15.368 28.175 17.0095 28.175 19.043C28.175 21.0765 26.5335 22.718 24.5 22.718Z" fill="#172662"/>
</svg>
