<svg width="46" height="45" viewBox="0 0 46 45" fill="none" xmlns="http://www.w3.org/2000/svg">
<path d="M23.0008 0.000610352C10.807 0.000610352 0.910645 9.897 0.910645 22.0908C0.910645 34.2845 10.807 44.1809 23.0008 44.1809C35.1946 44.1809 45.091 34.2845 45.091 22.0908C45.091 9.897 35.1946 0.000610352 23.0008 0.000610352ZM12.1104 35.9634C13.0602 33.9753 18.8479 32.0313 23.0008 32.0313C27.1538 32.0313 32.9635 33.9753 33.8913 35.9634C30.887 38.3491 27.1096 39.7629 23.0008 39.7629C18.892 39.7629 15.1146 38.3491 12.1104 35.9634ZM37.0502 32.7603C33.8913 28.9166 26.226 27.6133 23.0008 27.6133C19.7756 27.6133 12.1104 28.9166 8.95146 32.7603C6.69827 29.8002 5.32868 26.1112 5.32868 22.0908C5.32868 12.349 13.259 4.41864 23.0008 4.41864C32.7426 4.41864 40.6729 12.349 40.6729 22.0908C40.6729 26.1112 39.3033 29.8002 37.0502 32.7603ZM23.0008 8.83668C18.7153 8.83668 15.2693 12.2827 15.2693 16.5682C15.2693 20.8537 18.7153 24.2998 23.0008 24.2998C27.2863 24.2998 30.7324 20.8537 30.7324 16.5682C30.7324 12.2827 27.2863 8.83668 23.0008 8.83668ZM23.0008 19.8818C21.1673 19.8818 19.6873 18.4017 19.6873 16.5682C19.6873 14.7347 21.1673 13.2547 23.0008 13.2547C24.8343 13.2547 26.3143 14.7347 26.3143 16.5682C26.3143 18.4017 24.8343 19.8818 23.0008 19.8818Z" fill="white"/>
</svg>
