<svg width="86" height="86" viewBox="0 0 86 86" fill="none" xmlns="http://www.w3.org/2000/svg">
<g clip-path="url(#clip0)">
<path d="M39.3544 67.7199L14.2515 42.941L39.0305 17.8382L55.168 33.7675L58.7079 30.1813L42.5703 14.252C40.5979 12.3051 37.3912 12.3259 35.4443 14.2983L10.6654 39.4012C8.71851 41.3735 8.73933 44.5802 10.7117 46.5271L35.8146 71.3061C37.7869 73.253 40.9936 73.2321 42.9405 71.2598L58.8698 55.1222L55.2837 51.5824L39.3544 67.7199ZM30.9971 48.2482L31.6597 40.5476L20.481 42.0098L40.2047 61.4789L42.1936 46.7681L30.9971 48.2482ZM71.2593 42.5708L76.569 37.1916L72.9829 33.6518L67.6732 39.0309L62.294 33.7212C62.2942 33.7568 58.7541 37.3073 58.7541 37.3073L64.1333 42.6171L58.8412 47.9783C58.8415 48.014 62.4274 51.5182 62.4274 51.5182L67.7194 46.1569L73.0986 51.4667L76.6385 47.8806L71.2593 42.5708Z" fill="#BABABA"/>
</g>
<defs>
<clipPath id="clip0">
<rect width="60.4671" height="60.4671" fill="white" transform="translate(42.4775) rotate(44.6279)"/>
</clipPath>
</defs>
</svg>
