<svg width="81" height="81" viewBox="0 0 81 81" fill="none" xmlns="http://www.w3.org/2000/svg">
<g clip-path="url(#clip0)">
<path d="M27.7739 33.3949L36.413 48.2775L32.1608 50.7458L23.5217 35.8632L27.7739 33.3949ZM36.2783 28.4582L48.6198 49.7191L44.3677 52.1875L32.0261 30.9266L36.2783 28.4582ZM44.7826 23.5216L57.1242 44.7825L52.872 47.2508L40.5304 25.9899L44.7826 23.5216ZM68.0969 44.0981L62.9381 35.211C64.886 32.8864 65.3144 29.511 63.71 26.7471C62.1056 23.9832 58.9621 22.6812 55.9775 23.2199L50.8187 14.3328C50.6459 14.0351 50.4642 13.7711 50.24 13.5317C49.5886 12.8013 48.7314 12.304 47.8241 12.0632C47.2193 11.9026 46.5664 11.8552 45.9327 11.9388C45.3203 12.0101 44.6935 12.2034 44.0982 12.5489L14.3329 29.8271C13.7589 30.1604 13.2589 30.6212 12.872 31.13C12.4852 31.6388 12.2238 32.2169 12.042 32.834C11.8012 33.7413 11.8079 34.7323 12.1192 35.6602C12.2371 35.9613 12.3763 36.25 12.5491 36.5476L29.8273 66.3129C31.1848 68.6516 34.2091 69.4543 36.5478 68.0968L66.313 50.8186C68.6517 49.461 69.4545 46.4368 68.0969 44.0981ZM59.9893 28.9069C60.4953 29.7786 60.192 30.9211 59.3204 31.4271C58.4487 31.9331 57.3062 31.6298 56.8002 30.7581C56.2942 29.8864 56.5974 28.7439 57.4691 28.2379C58.3408 27.7319 59.4833 28.0352 59.9893 28.9069ZM34.0794 63.8446L16.8012 34.0793L46.5665 16.8011L63.8447 46.5664L34.0794 63.8446Z" fill="#BABABA"/>
</g>
<defs>
<clipPath id="clip0">
<rect width="59" height="59" fill="white" transform="translate(51.0264) rotate(59.8656)"/>
</clipPath>
</defs>
</svg>
