<svg width="74" height="74" viewBox="0 0 74 74" fill="none" xmlns="http://www.w3.org/2000/svg">
<g clip-path="url(#clip0)">
<path d="M50.9623 45.119L49.9651 43.0556L54.0918 41.0613C59.7866 38.3091 62.1748 31.4535 59.4227 25.7587C56.6705 20.0639 49.8149 17.6756 44.1201 20.4278L39.9934 22.4222L38.9962 20.3588C37.8994 18.0891 35.1449 17.1296 32.8752 18.2265L12.2418 28.1982C9.97209 29.295 9.01253 32.0495 10.1094 34.3192L22.0754 59.0793C23.1723 61.349 25.9268 62.3085 28.1965 61.2117L48.8299 51.24C51.0996 50.1431 52.0591 47.3886 50.9623 45.119ZM46.1144 24.5545C49.5396 22.8992 53.6407 24.3279 55.296 27.753C56.9513 31.1782 55.5226 35.2793 52.0974 36.9346L47.9708 38.9289L41.9877 26.5489L46.1144 24.5545ZM26.2021 57.085L14.2361 32.3248L34.8695 22.3532L46.8356 47.1133L26.2021 57.085ZM26.4091 41.7134C27.506 43.9831 30.2605 44.9426 32.5302 43.8458C34.7999 42.7489 35.7594 39.9944 34.6625 37.7247C33.5656 35.4551 30.8112 34.4955 28.5415 35.5924C26.2718 36.6893 25.3123 39.4437 26.4091 41.7134Z" fill="#BABABA"/>
</g>
<defs>
<clipPath id="clip0">
<rect width="55" height="55" fill="white" transform="translate(49.5195) rotate(64.2066)"/>
</clipPath>
</defs>
</svg>
