<svg width="102" height="96" viewBox="0 0 102 96" fill="none" xmlns="http://www.w3.org/2000/svg">
<path d="M90.8825 57.8454L36.4727 75.7069C35.9233 75.8873 35.3359 75.5654 35.1922 75.0053L20.8773 19.2075C20.8139 18.9607 20.8472 18.6989 20.9704 18.4758L22.7896 15.1798C22.8957 14.9876 23.0621 14.8356 23.2631 14.7474L42.0969 6.48053C42.3821 6.35534 42.7094 6.3702 42.9821 6.52071L90.6859 32.8505C90.9703 33.0075 91.1608 33.2929 91.1965 33.6159L93.3957 53.4675C93.4184 53.6728 93.3771 53.88 93.2773 54.0609L91.4461 57.3785C91.324 57.5997 91.1227 57.7665 90.8825 57.8454Z" stroke="#BABABA" stroke-width="3"/>
<path d="M27.7687 17.5411C27.4185 17.3478 35.3829 13.7482 39.4088 11.9726L41.3387 25.031L27.7687 17.5411Z" fill="#BABABA"/>
<path d="M45.0823 26.5261L43.4393 11.9128L60.5115 21.3356L45.0823 26.5261Z" fill="#BABABA"/>
<path d="M68.9169 40.2525L47.905 28.6552L64.4512 23.5101L68.9169 40.2525Z" fill="#BABABA"/>
<path d="M72.4189 42.1854L67.9532 25.443L85.2215 35.5453L72.4189 42.1854Z" fill="#BABABA"/>
<path d="M75.9209 44.1183L87.5609 38.5498L88.6156 51.1251L75.9209 44.1183Z" fill="#BABABA"/>
<path d="M37.0297 64.9143L26.0774 20.6053L41.3985 29.0617L37.0297 64.9143Z" fill="#BABABA"/>
<path d="M40.5316 66.8472L44.9004 30.9946L68.5389 44.0416L40.5316 66.8472Z" fill="#BABABA"/>
<path d="M86.9243 54.1893L72.0408 45.9745L44.4714 69.0217L86.9243 54.1893Z" fill="#BABABA"/>
</svg>
