<svg width="72" height="72" viewBox="0 0 72 72" fill="none" xmlns="http://www.w3.org/2000/svg">
<g clip-path="url(#clip0)">
<path d="M31.5345 42.1289C26.9355 44.4852 18.9549 51.4772 21.3011 56.0565L23.0633 59.496L50.5788 45.3985L48.8166 41.9591C46.4704 37.3797 36.1335 39.7726 31.5345 42.1289ZM25.6484 53.2089C26.7153 51.2231 30.0303 47.8622 33.5484 46.0597C37.0665 44.2572 41.7309 43.5299 43.9658 43.824L25.6484 53.2089ZM29.7723 38.6895C33.5655 36.746 35.0702 32.0795 33.1268 28.2862C31.1834 24.493 26.5168 22.9883 22.7236 24.9317C18.9304 26.8752 17.4256 31.5418 19.3691 35.335C21.3125 39.1282 25.9791 40.6329 29.7723 38.6895ZM24.7375 28.8625C26.3688 28.0267 28.3602 28.6689 29.196 30.3002C30.0318 31.9314 29.3896 33.9229 27.7584 34.7587C26.1271 35.5945 24.1356 34.9523 23.2998 33.3211C22.4641 31.6898 23.1062 29.6983 24.7375 28.8625ZM45.4313 35.1578C48.557 35.6407 51.2571 37.0364 52.7474 39.9451L54.5096 43.3846L62.3711 39.3567L60.6089 35.9173C58.5749 31.9472 50.538 33.2114 45.4313 35.1578ZM41.5646 32.6477C45.3579 30.7043 46.8626 26.0377 44.9192 22.2445C42.9757 18.4513 38.3091 16.9465 34.5159 18.89C33.4546 19.4337 32.6028 20.1927 31.9203 21.0883C34.0547 22.2031 35.8794 23.9728 37.0576 26.2723C38.2357 28.5718 38.6061 31.0867 38.2641 33.4703C39.3897 33.4395 40.5033 33.1915 41.5646 32.6477Z" fill="#BABABA"/>
</g>
<defs>
<clipPath id="clip0">
<rect width="53" height="53" fill="white" transform="translate(0 24.167) rotate(-27.1282)"/>
</clipPath>
</defs>
</svg>
