<svg width="156" height="137" viewBox="0 0 156 137" fill="none" xmlns="http://www.w3.org/2000/svg">
<path d="M146.829 67.3982L66.96 119.537C66.1535 120.064 65.0699 119.799 64.5978 118.959L17.5686 35.3319C17.3605 34.9619 17.3016 34.5264 17.4038 34.1144L18.9136 28.0286C19.0017 27.6737 19.2041 27.3576 19.4897 27.1291L46.2397 5.72781C46.6447 5.40372 47.1777 5.28689 47.6812 5.41181L135.763 27.264C136.289 27.3943 136.718 27.7717 136.914 28.2759L148.99 59.2731C149.115 59.5937 149.137 59.945 149.055 60.2788L147.535 66.4046C147.433 66.8131 147.181 67.1681 146.829 67.3982Z" stroke="#BABABA" stroke-width="4.99667"/>
<path d="M27.9399 29.6863C27.2933 29.5259 38.5606 20.3088 44.2751 15.7204L52.9962 35.9025L27.9399 29.6863Z" fill="#BABABA"/>
<path d="M59.6629 36.6984L50.7348 13.8908L82.2575 21.7113L59.6629 36.6984Z" fill="#BABABA"/>
<path d="M103.918 48.5355L65.1203 38.9103L89.532 23.516L103.918 48.5355Z" fill="#BABABA"/>
<path d="M110.384 50.1396L95.9982 25.1202L128.129 33.9494L110.384 50.1396Z" fill="#BABABA"/>
<path d="M116.85 51.7438L133.185 37.7779L140.29 57.559L116.85 51.7438Z" fill="#BABABA"/>
<path d="M63.2139 101.931L26.5363 35.3442L54.8256 42.3625L63.2139 101.931Z" fill="#BABABA"/>
<path d="M69.6801 103.535L61.2918 43.9667L104.939 54.795L69.6801 103.535Z" fill="#BABABA"/>
<path d="M138.886 63.217L111.405 56.3992L76.9546 105.34L138.886 63.217Z" fill="#BABABA"/>
</svg>
