<svg width="81" height="81" viewBox="0 0 81 81" fill="none" xmlns="http://www.w3.org/2000/svg">
<path d="M52.3125 47.25H49.6463L48.7013 46.3387C52.0088 42.4912 54 37.4963 54 32.0625C54 19.9462 44.1787 10.125 32.0625 10.125C19.9462 10.125 10.125 19.9462 10.125 32.0625C10.125 44.1787 19.9462 54 32.0625 54C37.4963 54 42.4912 52.0088 46.3387 48.7013L47.25 49.6463V52.3125L64.125 69.1537L69.1537 64.125L52.3125 47.25ZM32.0625 47.25C23.6587 47.25 16.875 40.4662 16.875 32.0625C16.875 23.6587 23.6587 16.875 32.0625 16.875C40.4662 16.875 47.25 23.6587 47.25 32.0625C47.25 40.4662 40.4662 47.25 32.0625 47.25Z" fill="#BABABA"/>
</svg>
