<svg width="87" height="99" viewBox="0 0 87 99" fill="none" xmlns="http://www.w3.org/2000/svg">
<path d="M44.2417 34.8979L49.966 49.067L39.6526 50.8021L45.3475 64.9541L64.1881 32.5306L44.2417 34.8979ZM6.45127 64.038L3.0257 69.9332L50.1871 97.3377C53.4295 99.2218 57.6238 98.1105 59.5078 94.8681L86.9124 47.7067L81.0172 44.2811L53.6127 91.4425L6.45127 64.038ZM25.491 4.13028L1.51206 45.3965C-0.372006 48.6389 0.739317 52.8332 3.98166 54.7172L45.2479 78.6962C48.4902 80.5803 52.6846 79.469 54.5686 76.2266L78.5476 34.9604C80.4317 31.718 79.3203 27.5237 76.078 25.6397L34.8118 1.66068C31.5694 -0.223386 27.3751 0.887933 25.491 4.13028ZM72.6524 31.5348L48.6735 72.8011L7.40723 48.8221L31.3862 7.55585L72.6524 31.5348Z" fill="#BABABA"/>
</svg>
