<svg width="583" height="360" viewBox="0 0 583 360" fill="none" xmlns="http://www.w3.org/2000/svg">
<path d="M47.3714 156.707L2 185.74L47.3714 217.697L81.3557 192.708L111.723 212.93L80.7389 236.764L155.816 288.007L188.97 262.386L213.017 277.282L179.65 302.307L261.358 358L295.244 330.903L328.612 353.355L401.305 298.732L372.704 274.898L398.392 255.031L431.295 280.58L502.599 224.847L470.423 201.013L496.641 182.256L531.554 207.031L580.329 174.796L531.554 139.288L496.641 168.837L469.232 150.962L504.983 122.361L427.522 73.5017L390.58 100.911L364.362 84.227L397.73 55.6263L313.12 2L278.56 30.6007C267.835 23.8478 243.763 2 242.809 2C241.856 2 194.002 43.7094 171.308 63.9682L202.292 86.6104L184.416 100.965L153.744 78.513L75.9721 136.662L104.573 158.112L80.7389 177.179L47.3714 156.707Z" stroke="#EBEBEB" stroke-width="2"/>
</svg>
