<svg width="132" height="36" viewBox="0 0 132 36" fill="none" xmlns="http://www.w3.org/2000/svg">
<path d="M21.4509 4.44316H13.4694V35.2918H8.10067V4.44316H0.226562V0.0975269L21.4509 0.0975269V4.44316Z" fill="white"/>
<path d="M32.1823 26.1356H26.8136V0.0975269H32.1823V26.1356Z" fill="white"/>
<path d="M40.1936 26.1356V0.0975269H52.3746C55.5362 0.0975269 57.9342 0.705559 59.5687 1.92162C61.2032 3.12576 62.0204 4.89621 62.0204 7.23296C62.0204 8.50863 61.6923 9.63528 61.0362 10.6129C60.38 11.5786 59.4673 12.288 58.2981 12.741C59.6343 13.0748 60.6842 13.7484 61.4478 14.7618C62.2232 15.7752 62.611 17.0151 62.611 18.4815C62.611 20.9852 61.8116 22.8808 60.213 24.1684C58.6143 25.456 56.3356 26.1117 53.3768 26.1356H40.1936ZM45.5623 14.7976V21.8257H53.2157C54.4804 21.8257 55.4646 21.5277 56.1685 20.9316C56.8844 20.3235 57.2423 19.489 57.2423 18.4279C57.2423 16.0435 56.0075 14.8334 53.5379 14.7976H45.5623ZM45.5623 11.0063H52.5894C55.2976 10.9586 56.6517 9.87968 56.6517 7.76945C56.6517 6.58916 56.3057 5.74268 55.6138 5.23003C54.9337 4.70545 53.854 4.44316 52.3746 4.44316H45.5623V11.0063Z" fill="white"/>
<path d="M81.9025 26.1333V0.0952148L69.65 0.0952148C72.8115 0.0952148 75.2096 0.703247 76.844 1.91931C78.4785 3.12345 79.2957 4.8939 79.2957 7.23064C79.2957 8.50632 78.9676 9.63297 78.3115 10.6106C77.6553 11.5763 76.7426 12.2857 75.5734 12.7387C76.9096 13.0725 77.9595 13.7461 78.7231 14.7595C79.4986 15.7729 79.8863 17.0128 79.8863 18.4792C79.8863 20.9829 79.087 22.8785 77.4883 24.1661C75.8896 25.4537 73.6109 26.1094 70.6521 26.1333H81.9025ZM65.8919 14.7953V21.8234H70.4911C71.7557 21.8234 72.7399 21.5253 73.4438 20.9292C74.1597 20.3212 74.5176 19.4867 74.5176 18.4256C74.5176 16.0411 73.2828 14.831 70.8132 14.7953H65.8919ZM65.8919 11.004H69.8647C72.5729 10.9563 73.927 9.87737 73.927 7.76714C73.927 6.58685 73.581 5.74037 72.8891 5.22772C72.209 4.70314 71.1293 4.44085 69.65 4.44085H65.8919V11.004Z" fill="white"/>
<path d="M96.5054 14.8512H86.1975V21.8257H98.295V26.1356H80.8288V0.0975269L98.2592 0.0975269V4.44316H86.1975V10.6487H96.5054V14.8512Z" fill="white"/>
<path d="M111.478 0.0975269L118.171 18.9823L124.828 0.0975269H131.879V35.2918H13.4873V31.2234H126.493V19.018L127.03 6.73222L119.997 26.1356H116.31L109.295 6.75011L109.832 19.018V26.1356H104.463V0.0975269H111.478Z" fill="white"/>
</svg>
