<svg width="20" height="18" viewBox="0 0 20 18" fill="none" xmlns="http://www.w3.org/2000/svg">
<path fill-rule="evenodd" clip-rule="evenodd" d="M3.70299 0.749874C3.0302 0.113821 1.93941 0.113844 1.26665 0.749924C0.593886 1.386 0.593907 2.41727 1.2667 3.05332L7.53521 8.97954L1.25615 14.9793C0.586754 15.6189 0.592225 16.6502 1.26837 17.2827C1.94452 17.9151 3.0353 17.9093 3.70469 17.2697L9.97091 11.2822L16.3018 17.2674C16.9746 17.9035 18.0654 17.9035 18.7381 17.2674C19.4109 16.6313 19.4109 15.6 18.7381 14.964L12.3943 8.96661L18.6819 2.95873C19.3513 2.31911 19.3458 1.28786 18.6697 0.655378C17.9935 0.0228937 16.9027 0.0286823 16.2333 0.668304L9.95863 6.66391L3.70299 0.749874Z" fill="#212D5B"/>
</svg>
