<svg width="56" height="56" viewBox="0 0 56 56" fill="none" xmlns="http://www.w3.org/2000/svg">
<path d="M2 24.8501V54.0534M2 24.8501L7.65914 20.0986M2 24.8501L7.65914 29.7975M2 54.0534H54M2 54.0534L18.5208 39.2931M54 54.0534V24.8501M54 54.0534L37.3429 39.2931M54 24.8501L48.4476 19.8316M54 24.8501L48.4476 29.6644M37.3429 39.2931L28.9468 46.5731C28.3428 47.0968 27.4452 47.095 26.8434 46.5689L18.5208 39.2931M37.3429 39.2931L39.8431 37.1252M18.5208 39.2931L16.0411 37.1252M16.0411 37.1252H39.8431M16.0411 37.1252L7.65914 29.7975M39.8431 37.1252L48.4476 29.6644M7.65914 29.7975V3.60164C7.65914 2.71708 8.37622 2 9.26078 2H46.846C47.7306 2 48.4476 2.71708 48.4476 3.60164V29.6644M30.8296 28.694V33.2854C30.8296 33.4623 30.6862 33.6058 30.5092 33.6058H25.2772C25.1003 33.6058 24.9569 33.4623 24.9569 33.2854V28.694M30.8296 28.694H24.9569M30.8296 28.694C32.982 28.4017 37.4321 27.6674 38.5708 27.0016C38.6284 26.968 38.6331 26.8901 38.5847 26.8442L34.1351 22.632C34.065 22.5656 34.112 22.4476 34.2086 22.4476H37.6236C37.7181 22.4476 37.766 22.334 37.7001 22.2663L33.3698 17.824C33.3038 17.7564 33.3517 17.6427 33.4462 17.6427H36.868C36.9549 17.6427 37.0054 17.5443 36.9547 17.4737L29.5161 7.10472C28.8924 6.23531 27.6079 6.21023 26.9508 7.05464L18.8446 17.4704C18.79 17.5405 18.84 17.6427 18.9289 17.6427H22.7653C22.8601 17.6427 22.9079 17.757 22.8414 17.8245L18.4625 22.2659C18.396 22.3334 18.4438 22.4476 18.5386 22.4476H21.8088C21.9029 22.4476 21.951 22.5606 21.8858 22.6284L17.8354 26.8428C17.7902 26.8899 17.7975 26.9661 17.8535 26.9996C19.0325 27.7043 23.0426 28.4181 24.9569 28.694" stroke="#172662" stroke-width="3"/>
</svg>
