<svg width="17" height="17" viewBox="0 0 17 17" fill="none" xmlns="http://www.w3.org/2000/svg">
<path d="M16.611 8.35692C16.611 12.8952 12.9239 16.5747 8.37508 16.5747C3.82622 16.5747 0.139167 12.8952 0.139167 8.35692C0.139167 3.81867 3.82622 0.139167 8.37508 0.139167C12.9239 0.139167 16.611 3.81867 16.611 8.35692Z" fill="#EBD408" stroke="#DAC403" stroke-width="0.278333"/>
<path d="M14.6869 8.35641C14.6869 11.8344 11.8612 14.6542 8.37517 14.6542C4.88913 14.6542 2.06348 11.8344 2.06348 8.35641C2.06348 4.87841 4.88913 2.0586 8.37517 2.0586C11.8612 2.0586 14.6869 4.87841 14.6869 8.35641Z" fill="#FFE34F" stroke="#FFE500" stroke-width="0.185556"/>
<path d="M10.982 8.65883C10.9281 9.40405 10.6522 9.9907 10.1543 10.4188C9.65965 10.8469 9.0064 11.061 8.19459 11.061C7.30668 11.061 6.60745 10.7629 6.0969 10.1667C5.58952 9.56736 5.33583 8.74604 5.33583 7.70274V7.2794C5.33583 6.61346 5.45316 6.02681 5.68783 5.51943C5.92249 5.01205 6.25704 4.62359 6.69148 4.35404C7.1291 4.08133 7.63648 3.94497 8.21362 3.94497C9.01274 3.94497 9.65648 4.15902 10.1448 4.58712C10.6332 5.01522 10.9154 5.61615 10.9915 6.3899H9.56451C9.52963 5.94277 9.40437 5.61932 9.18874 5.41954C8.97627 5.21659 8.65123 5.11511 8.21362 5.11511C7.73795 5.11511 7.3812 5.28635 7.14337 5.62883C6.9087 5.96814 6.7882 6.49613 6.78186 7.21281V7.73604C6.78186 8.48442 6.89443 9.03144 7.11958 9.37709C7.3479 9.72274 7.70624 9.89557 8.19459 9.89557C8.63538 9.89557 8.96359 9.79568 9.17922 9.5959C9.39803 9.39295 9.52329 9.08059 9.555 8.65883H10.982Z" fill="#CDB904"/>
</svg>
