<svg width="69" height="69" viewBox="0 0 69 69" fill="none" xmlns="http://www.w3.org/2000/svg">
<ellipse cx="33.9311" cy="34.4326" rx="11.1205" ry="11.1128" fill="#FFCB77"/>
<ellipse cx="33.9627" cy="34.2867" rx="13.5809" ry="17.1905" fill="white"/>
<path d="M55.7124 30.0335C50.0739 34.2108 43.3849 34.7422 40.7723 31.2206C38.1597 27.6989 40.6128 21.4577 46.2514 17.2804C51.89 13.1031 58.5789 12.5717 61.1915 16.0933C63.8041 19.615 61.351 25.8562 55.7124 30.0335Z" fill="white"/>
<path d="M44.299 14.5781C43.8136 21.5755 39.8724 27.0023 35.4959 26.6992C31.1195 26.3961 27.9652 20.4778 28.4505 13.4804C28.9359 6.48296 32.8771 1.05618 37.2536 1.35931C41.63 1.66244 44.7843 7.58071 44.299 14.5781Z" fill="white"/>
<path d="M48.362 51.1788C50.6837 57.7981 49.2097 64.3397 45.0697 65.7898C40.9297 67.2398 35.6915 63.0492 33.3698 56.4298C31.0481 49.8104 32.5221 43.2688 36.6621 41.8188C40.8021 40.3688 46.0404 44.5594 48.362 51.1788Z" fill="white"/>
<path d="M29.6286 57.8186C25.6053 63.5662 19.4297 66.1885 15.835 63.6758C12.2402 61.163 12.5876 54.4666 16.6108 48.719C20.634 42.9714 26.8096 40.349 30.4044 42.8618C33.9992 45.3746 33.6518 52.0709 29.6286 57.8186Z" fill="white"/>
<path d="M14.6285 45.1286C7.64134 45.7964 1.63853 42.8 1.2209 38.436C0.803258 34.0721 6.12894 29.993 13.1161 29.3253C20.1033 28.6575 26.1061 31.6539 26.5238 36.0179C26.9414 40.3818 21.6157 44.4609 14.6285 45.1286Z" fill="white"/>
<path d="M51.1645 48.6872C44.4872 46.5251 40.1703 41.3916 41.5226 37.2212C42.8748 33.0508 49.384 31.4227 56.0613 33.5848C62.7386 35.7468 67.0555 40.8803 65.7032 45.0507C64.351 49.2212 57.8418 50.8493 51.1645 48.6872Z" fill="white"/>
<path d="M25.609 14.5669C30.3945 19.6982 31.6723 26.2808 28.463 29.2697C25.2537 32.2586 18.7727 30.5218 13.9872 25.3906C9.20169 20.2593 7.92389 13.6767 11.1331 10.6878C14.3424 7.69892 20.8235 9.43567 25.609 14.5669Z" fill="white"/>
<ellipse cx="33.9311" cy="34.4326" rx="11.1205" ry="11.1128" fill="#FFCB77"/>
</svg>
