<svg width="69" height="69" viewBox="0 0 69 69" fill="none" xmlns="http://www.w3.org/2000/svg">
<ellipse cx="34.1709" cy="34.1393" rx="11.134" ry="11.1128" transform="rotate(0.201916 34.1709 34.1393)" fill="#FFCB77"/>
<ellipse cx="34.2036" cy="33.9932" rx="13.5973" ry="17.1905" transform="rotate(0.201916 34.2036 33.9932)" fill="white"/>
<path d="M55.9944 29.8169C50.3343 33.9742 43.6355 34.4821 41.0322 30.9512C38.4288 27.4203 40.9068 21.1878 46.5669 17.0305C52.227 12.8731 58.9259 12.3653 61.5292 15.8961C64.1325 19.427 61.6545 25.6595 55.9944 29.8169Z" fill="white"/>
<path d="M44.622 14.3213C44.1114 21.317 40.1463 26.7298 35.7656 26.4112C31.385 26.0927 28.2477 20.1633 28.7583 13.1676C29.2689 6.17197 33.2341 0.759122 37.6147 1.0777C41.9953 1.39627 45.1326 7.32563 44.622 14.3213Z" fill="white"/>
<path d="M48.5606 50.9359C50.8618 57.5634 49.3629 64.0998 45.2128 65.5352C41.0627 66.9706 35.833 62.7616 33.5318 56.134C31.2307 49.5065 32.7295 42.9701 36.8796 41.5347C41.0297 40.0993 46.2595 44.3083 48.5606 50.9359Z" fill="white"/>
<path d="M29.7806 57.5101C25.7323 63.2434 19.54 65.844 15.9498 63.3186C12.3595 60.7931 12.7309 54.098 16.7792 48.3646C20.8276 42.6312 27.0198 40.0307 30.6101 42.5561C34.2003 45.0816 33.8289 51.7767 29.7806 57.5101Z" fill="white"/>
<path d="M14.8081 44.7669C7.81013 45.41 1.81065 42.3925 1.40789 38.0271C1.00513 33.6617 6.3516 29.6015 13.3496 28.9584C20.3475 28.3153 26.347 31.3328 26.7498 35.6982C27.1525 40.0636 21.8061 44.1238 14.8081 44.7669Z" fill="white"/>
<path d="M51.3751 48.4548C44.6974 46.2692 40.3934 41.1205 41.762 36.9549C43.1305 32.7893 49.6533 31.1842 56.3311 33.3698C63.0088 35.5554 67.3127 40.7041 65.9442 44.8697C64.5756 49.0353 58.0528 50.6404 51.3751 48.4548Z" fill="white"/>
<path d="M25.9093 14.244C30.6825 19.3921 31.9386 25.9792 28.715 28.9567C25.4913 31.9343 19.0086 30.1747 14.2354 25.0266C9.46221 19.8784 8.20607 13.2913 11.4297 10.3138C14.6534 7.33627 21.1361 9.09588 25.9093 14.244Z" fill="white"/>
<ellipse cx="34.1709" cy="34.1393" rx="11.134" ry="11.1128" transform="rotate(0.201916 34.1709 34.1393)" fill="#FFCB77"/>
</svg>
