<svg width="229" height="68" viewBox="0 0 229 68" fill="none" xmlns="http://www.w3.org/2000/svg">
<path d="M118.451 22.4432H110.469V53.2918H105.101V22.4432H97.2266V18.0975H118.451V22.4432Z" fill="white"/>
<path d="M129.182 44.1356H123.814V18.0975H129.182V44.1356Z" fill="white"/>
<path d="M137.194 44.1356V18.0975H149.375C152.536 18.0975 154.934 18.7056 156.569 19.9216C158.203 21.1258 159.02 22.8962 159.02 25.233C159.02 26.5086 158.692 27.6353 158.036 28.6129C157.38 29.5786 156.467 30.288 155.298 30.741C156.634 31.0748 157.684 31.7484 158.448 32.7618C159.223 33.7752 159.611 35.0151 159.611 36.4815C159.611 38.9852 158.812 40.8808 157.213 42.1684C155.614 43.456 153.336 44.1117 150.377 44.1356H137.194ZM142.562 32.7976V39.8257H150.216C151.48 39.8257 152.465 39.5277 153.169 38.9316C153.884 38.3235 154.242 37.489 154.242 36.4279C154.242 34.0435 153.007 32.8334 150.538 32.7976H142.562ZM142.562 29.0063H149.589C152.298 28.9586 153.652 27.8797 153.652 25.7695C153.652 24.5892 153.306 23.7427 152.614 23.23C151.934 22.7055 150.854 22.4432 149.375 22.4432H142.562V29.0063Z" fill="white"/>
<path d="M178.903 44.1333V18.0952H166.65C169.812 18.0952 172.21 18.7032 173.844 19.9193C175.478 21.1235 176.296 22.8939 176.296 25.2306C176.296 26.5063 175.968 27.633 175.311 28.6106C174.655 29.5763 173.743 30.2857 172.573 30.7387C173.91 31.0725 174.96 31.7461 175.723 32.7595C176.499 33.7729 176.886 35.0128 176.886 36.4792C176.886 38.9829 176.087 40.8785 174.488 42.1661C172.89 43.4537 170.611 44.1094 167.652 44.1333H178.903ZM162.892 32.7953V39.8234H167.491C168.756 39.8234 169.74 39.5253 170.444 38.9292C171.16 38.3212 171.518 37.4867 171.518 36.4256C171.518 34.0411 170.283 32.831 167.813 32.7953H162.892ZM162.892 29.004H166.865C169.573 28.9563 170.927 27.8774 170.927 25.7671C170.927 24.5868 170.581 23.7404 169.889 23.2277C169.209 22.7031 168.129 22.4409 166.65 22.4409H162.892V29.004Z" fill="white"/>
<path d="M193.505 32.8512H183.198V39.8257H195.295V44.1356H177.829V18.0975H195.259V22.4432H183.198V28.6487H193.505V32.8512Z" fill="white"/>
<path d="M208.478 18.0975L215.171 36.9823L221.828 18.0975H228.879V53.2918H110.487V49.2234H223.493V37.018L224.03 24.7322L216.997 44.1356H213.31L206.295 24.7501L206.832 37.018V44.1356H201.463V18.0975H208.478Z" fill="white"/>
<ellipse cx="42.9311" cy="35.4326" rx="11.1205" ry="11.1128" fill="#FFCB77"/>
<ellipse cx="42.9627" cy="35.2867" rx="13.5809" ry="17.1905" fill="white"/>
<path d="M64.7124 31.0335C59.0739 35.2108 52.3849 35.7422 49.7723 32.2206C47.1597 28.6989 49.6128 22.4577 55.2514 18.2804C60.89 14.1031 67.5789 13.5717 70.1915 17.0933C72.8041 20.615 70.351 26.8562 64.7124 31.0335Z" fill="white"/>
<path d="M53.299 15.5781C52.8136 22.5755 48.8724 28.0023 44.4959 27.6992C40.1195 27.3961 36.9652 21.4778 37.4505 14.4804C37.9359 7.48296 41.8771 2.05618 46.2536 2.35931C50.63 2.66244 53.7843 8.58071 53.299 15.5781Z" fill="white"/>
<path d="M57.362 52.1788C59.6837 58.7981 58.2097 65.3397 54.0697 66.7898C49.9297 68.2398 44.6915 64.0492 42.3698 57.4298C40.0481 50.8104 41.5221 44.2688 45.6621 42.8188C49.8021 41.3688 55.0404 45.5594 57.362 52.1788Z" fill="white"/>
<path d="M38.6286 58.8186C34.6053 64.5662 28.4297 67.1885 24.835 64.6758C21.2402 62.163 21.5876 55.4666 25.6108 49.719C29.634 43.9714 35.8096 41.349 39.4044 43.8618C42.9992 46.3746 42.6518 53.0709 38.6286 58.8186Z" fill="white"/>
<path d="M23.6285 46.1286C16.6413 46.7964 10.6385 43.8 10.2209 39.436C9.80326 35.0721 15.1289 30.993 22.1161 30.3253C29.1033 29.6575 35.1061 32.6539 35.5238 37.0179C35.9414 41.3818 30.6157 45.4609 23.6285 46.1286Z" fill="white"/>
<path d="M60.1645 49.6872C53.4872 47.5251 49.1703 42.3916 50.5226 38.2212C51.8748 34.0508 58.384 32.4227 65.0613 34.5848C71.7386 36.7468 76.0555 41.8803 74.7032 46.0507C73.351 50.2212 66.8418 51.8493 60.1645 49.6872Z" fill="white"/>
<path d="M34.609 15.5669C39.3945 20.6982 40.6723 27.2808 37.463 30.2697C34.2537 33.2586 27.7727 31.5218 22.9872 26.3906C18.2017 21.2593 16.9239 14.6767 20.1331 11.6878C23.3424 8.69892 29.8235 10.4357 34.609 15.5669Z" fill="white"/>
<ellipse cx="42.9311" cy="35.4326" rx="11.1205" ry="11.1128" fill="#FFCB77"/>
</svg>
