<svg width="133" height="37" viewBox="0 0 133 37" fill="none" xmlns="http://www.w3.org/2000/svg">
<path d="M21.8273 5.41597L13.8362 5.38781L13.7275 36.2363L8.35233 36.2173L8.46105 5.36887L0.577451 5.34109L0.592765 0.995476L21.8426 1.07036L21.8273 5.41597Z" fill="white"/>
<path d="M32.4953 27.1461L27.1201 27.1272L27.2118 1.08928L32.587 1.10823L32.4953 27.1461Z" fill="white"/>
<path d="M40.5162 27.1744L40.608 1.13649L52.8037 1.17947C55.969 1.19063 58.3678 1.80712 60 3.02894C61.6322 4.23884 62.4442 6.01216 62.4359 8.34889C62.4314 9.62456 62.099 10.75 61.4386 11.7253C60.7782 12.6887 59.8619 13.3949 58.6897 13.8438C60.0264 14.1823 61.0751 14.8596 61.836 15.8757C62.6089 16.8918 62.9927 18.1331 62.9875 19.5995C62.9787 22.1031 62.1717 23.9959 60.5666 25.2779C58.9615 26.5598 56.6777 27.2075 53.7153 27.2209L40.5162 27.1744ZM45.9314 15.8554L45.9066 22.8835L53.5692 22.9105C54.8354 22.915 55.8219 22.6204 56.5287 22.0268C57.2475 21.4213 57.6088 20.588 57.6126 19.5269C57.621 17.1425 56.3889 15.928 53.9165 15.8835L45.9314 15.8554ZM45.9447 12.0642L52.9802 12.089C55.6919 12.0508 57.0514 10.9767 57.0589 8.86644C57.063 7.68616 56.7196 6.83846 56.0286 6.32337C55.3496 5.7964 54.2695 5.5303 52.7883 5.52508L45.9678 5.50105L45.9447 12.0642Z" fill="white"/>
<path d="M82.2754 27.3192L82.3672 1.28135L70.0998 1.23811C73.2652 1.24927 75.664 1.86576 77.2961 3.08758C78.9283 4.29748 79.7403 6.0708 79.7321 8.40753C79.7276 9.6832 79.3951 10.8087 78.7347 11.784C78.0743 12.7474 77.158 13.4535 75.9859 13.9024C77.3225 14.241 78.3713 14.9183 79.1322 15.9343C79.905 16.9504 80.2889 18.1917 80.2837 19.6581C80.2749 22.1618 79.4679 24.0546 77.8627 25.3365C76.2576 26.6185 73.9738 27.2661 71.0114 27.2795L82.2754 27.3192ZM66.2854 15.9248L66.2606 22.9529L70.8653 22.9691C72.1315 22.9736 73.118 22.679 73.8248 22.0854C74.5437 21.4799 74.905 20.6466 74.9087 19.5855C74.9171 17.2011 73.6851 15.9867 71.2126 15.9422L66.2854 15.9248ZM66.2987 12.1336L70.2764 12.1476C72.988 12.1095 74.3476 11.0353 74.355 8.92509C74.3591 7.7448 74.0157 6.89711 73.3247 6.38201C72.6457 5.85504 71.5656 5.58895 70.0845 5.58373L66.3219 5.57047L66.2987 12.1336Z" fill="white"/>
<path d="M96.9356 16.0888L86.6153 16.0524L86.5907 23.0269L98.7028 23.0696L98.6876 27.3794L81.2003 27.3178L81.2921 1.27987L98.7435 1.34137L98.7282 5.68698L86.652 5.64442L86.6301 11.8499L96.9504 11.8863L96.9356 16.0888Z" fill="white"/>
<path d="M111.978 1.38801L118.613 20.2963L125.345 1.43512L132.404 1.45999L132.28 36.6541L13.7454 36.2363L13.7598 32.1679L126.901 32.5666L126.944 20.3614L127.525 8.07754L120.415 27.456L116.724 27.443L109.769 8.03285L110.263 20.3026L110.238 27.4201L104.863 27.4012L104.955 1.36326L111.978 1.38801Z" fill="white"/>
</svg>
